<svg width="147" height="48" viewBox="0 0 147 48" fill="none" xmlns="http://www.w3.org/2000/svg">
<path d="M55.0909 13.1271L59.5753 20.5845H59.7344L64.2386 13.1271H68.4446L62.1705 23.3089L68.544 33.4908H64.2685L59.7344 26.0831H59.5753L55.0412 33.4908H50.7855L57.2188 23.3089L50.8651 13.1271H55.0909ZM70.4457 16.2195V13.1271H86.6928V16.2195H80.3988V33.4908H76.7397V16.2195H70.4457ZM88.0799 33.4908V18.218H91.57V20.7635H91.729C92.0075 19.8819 92.4847 19.2024 93.1609 18.7251C93.8436 18.2412 94.6225 17.9993 95.4975 17.9993C95.6964 17.9993 95.9184 18.0092 96.1637 18.0291C96.4156 18.0424 96.6244 18.0656 96.7901 18.0987V21.4098C96.6377 21.3568 96.3957 21.3104 96.0643 21.2706C95.7395 21.2242 95.4246 21.201 95.1197 21.201C94.4634 21.201 93.8735 21.3435 93.3498 21.6285C92.8327 21.9069 92.4251 22.2947 92.1268 22.7919C91.8285 23.2891 91.6793 23.8624 91.6793 24.5121V33.4908H88.0799ZM103.303 33.799C102.335 33.799 101.463 33.6266 100.688 33.282C99.9189 32.9306 99.3091 32.4136 98.8583 31.7308C98.4142 31.048 98.1921 30.2062 98.1921 29.2052C98.1921 28.3435 98.3512 27.6309 98.6694 27.0675C98.9876 26.504 99.4218 26.0533 99.9719 25.7152C100.522 25.3771 101.142 25.1219 101.831 24.9496C102.527 24.7706 103.247 24.6413 103.989 24.5618C104.884 24.469 105.61 24.3861 106.167 24.3132C106.723 24.2337 107.128 24.1143 107.38 23.9552C107.638 23.7895 107.767 23.5343 107.767 23.1896V23.13C107.767 22.3809 107.545 21.8009 107.101 21.3899C106.657 20.9789 106.017 20.7734 105.182 20.7734C104.301 20.7734 103.601 20.9657 103.084 21.3501C102.574 21.7346 102.229 22.1887 102.05 22.7123L98.6893 22.2351C98.9544 21.307 99.3919 20.5315 100.002 19.9084C100.612 19.2786 101.357 18.808 102.239 18.4964C103.121 18.1783 104.095 18.0192 105.162 18.0192C105.898 18.0192 106.631 18.1053 107.36 18.2777C108.089 18.45 108.755 18.7351 109.358 19.1328C109.962 19.5239 110.445 20.0575 110.81 20.7337C111.181 21.4098 111.367 22.255 111.367 23.2692V33.4908H107.907V31.3927H107.787C107.569 31.817 107.26 32.2147 106.863 32.5859C106.471 32.9505 105.978 33.2455 105.381 33.4709C104.791 33.6896 104.098 33.799 103.303 33.799ZM104.238 31.1541C104.96 31.1541 105.587 31.0116 106.117 30.7266C106.647 30.4349 107.055 30.0504 107.34 29.5731C107.632 29.0959 107.777 28.5755 107.777 28.0121V26.2123C107.665 26.3052 107.472 26.3913 107.201 26.4709C106.935 26.5504 106.637 26.62 106.306 26.6797C105.974 26.7393 105.646 26.7924 105.321 26.8388C104.997 26.8852 104.715 26.9249 104.476 26.9581C103.939 27.031 103.459 27.1503 103.034 27.316C102.61 27.4818 102.275 27.7138 102.03 28.0121C101.785 28.3037 101.662 28.6816 101.662 29.1456C101.662 29.8085 101.904 30.3089 102.388 30.647C102.872 30.9851 103.489 31.1541 104.238 31.1541ZM120.654 33.7592C119.454 33.7592 118.38 33.451 117.432 32.8345C116.484 32.218 115.735 31.3231 115.185 30.1498C114.635 28.9766 114.36 27.5514 114.36 25.8743C114.36 24.1773 114.638 22.7455 115.195 21.5788C115.758 20.4055 116.517 19.5206 117.472 18.924C118.426 18.3208 119.49 18.0192 120.664 18.0192C121.559 18.0192 122.294 18.1716 122.871 18.4766C123.448 18.7748 123.905 19.1361 124.243 19.5604C124.581 19.978 124.843 20.3724 125.029 20.7436H125.178V13.1271H128.787V33.4908H125.248V31.0845H125.029C124.843 31.4557 124.575 31.8501 124.223 32.2677C123.872 32.6787 123.408 33.0301 122.831 33.3217C122.255 33.6134 121.529 33.7592 120.654 33.7592ZM121.658 30.8061C122.42 30.8061 123.07 30.6006 123.607 30.1896C124.144 29.772 124.551 29.192 124.83 28.4496C125.108 27.7071 125.248 26.8421 125.248 25.8544C125.248 24.8667 125.108 24.0083 124.83 23.2791C124.558 22.5499 124.154 21.9832 123.617 21.5788C123.087 21.1745 122.434 20.9723 121.658 20.9723C120.856 20.9723 120.186 21.1811 119.65 21.5987C119.113 22.0163 118.708 22.593 118.436 23.3288C118.165 24.0646 118.029 24.9065 118.029 25.8544C118.029 26.8089 118.165 27.6607 118.436 28.4098C118.715 29.1522 119.123 29.7389 119.659 30.1697C120.203 30.594 120.869 30.8061 121.658 30.8061ZM134.86 39.218C134.37 39.218 133.915 39.1783 133.498 39.0987C133.087 39.0258 132.759 38.9396 132.513 38.8402L133.349 36.0362C133.872 36.1887 134.34 36.2616 134.751 36.255C135.162 36.2483 135.523 36.1191 135.835 35.8672C136.153 35.6219 136.421 35.2109 136.64 34.6342L136.948 33.8089L131.41 18.218H135.228L138.748 29.7521H138.907L142.437 18.218H146.265L140.15 35.3402C139.865 36.1489 139.487 36.8416 139.016 37.4183C138.546 38.0016 137.969 38.4458 137.286 38.7507C136.61 39.0623 135.801 39.218 134.86 39.218Z" fill="white"/>
<g clip-path="url(#clip0_237_269)">
<path fill-rule="evenodd" clip-rule="evenodd" d="M19.7211 23.6046L11.106 9.25397H18.7959L24.1884 18.2389L35.3778 4.79771L24.3521 12.0596L20.7015 5.97944H5.14862L14.796 22.05L0 47.2895L19.7211 23.6046Z" fill="#12FF99"/>
<path fill-rule="evenodd" clip-rule="evenodd" d="M27.2788 23.6865L35.8923 38.0356H28.204L22.8115 29.0522L11.6221 42.4918L22.6478 35.2299L26.2969 41.3101H41.8497L32.2039 25.2411L46.9999 -1.90735e-06L27.2788 23.6865Z" fill="#DBFF47"/>
</g>
<defs>
<clipPath id="clip0_237_269">
<rect width="47" height="47.2895" fill="white"/>
</clipPath>
</defs>
</svg>
