<svg xmlns="http://www.w3.org/2000/svg" width="108" height="108" viewBox="0 0 108 108" fill="none">
  <style>
    /* Rotating border animation */
    @keyframes rotateBorder {
      0% { transform: rotate(0deg); }
      100% { transform: rotate(360deg); }
    }
    
    /* Color fade animation */
    @keyframes colorPulse {
      0%, 100% { 
        fill: #12FF99;
        opacity: 0.7;
      }
      50% { 
        fill: #DBFF47;
        opacity: 1;
      }
    }
    
    /* Apply border rotation */
    .rotating-border {
      position: absolute;
      width: 124px;
      height: 124px;
      border: 2px dashed #DBFF47;
      border-radius: 50%;
      top: -4px;
      left: -4px;
      animation: rotateBorder 8s linear infinite;
      pointer-events: none;
    }
    
    /* Apply color pulse to all paths */
    g > path {
      animation: colorPulse 3s ease-in-out infinite;
    }
    
    /* Staggered animations */
    path:nth-child(1) { animation-delay: 0s; }
    path:nth-child(2) { animation-delay: 0.3s; }
    path:nth-child(3) { animation-delay: 0.6s; }
    path:nth-child(4) { animation-delay: 0.9s; }
  </style>
  <rect class="rotating-border" x="-2" y="-2" width="124" height="124" rx="62"/>
  <g clip-path="url(#clip0_72_344)">
    <path d="M93.7734 43.7949C99.1224 54.0068 95.0068 66.9194 84.7266 72.2994C82.2672 73.579 79.5798 74.3616 76.818 74.6026C74.0561 74.8436 71.2739 74.5382 68.63 73.704C65.9862 72.8697 63.5326 71.5229 61.4093 69.7404C59.2859 67.9579 57.5344 65.7746 56.2549 63.3152C54.9753 60.8558 54.1927 58.1685 53.9517 55.4066C53.7107 52.6448 54.0161 49.8625 54.8503 47.2187C55.6846 44.5749 57.0314 42.1213 58.8139 39.9979C60.5964 37.8746 62.7797 36.1232 65.2391 34.8436C75.5537 29.5114 88.4331 33.5456 93.7734 43.7949ZM70.7227 50.5185C70.5387 50.203 70.435 49.8471 70.4207 49.4821C70.4063 49.1171 70.4817 48.7542 70.6402 48.4252C70.7988 48.0962 71.0357 47.8111 71.3301 47.5949C71.6245 47.3787 71.9675 47.2381 72.3289 47.1854C73.1221 47.0661 73.9735 47.2643 74.7791 47.3124C75.3587 47.3997 75.9499 47.2649 76.4343 46.9347C76.9186 46.6046 77.2603 46.1036 77.3909 45.5322C77.5215 44.9608 77.4313 44.3611 77.1384 43.8534C76.8456 43.3456 76.3716 42.9673 75.8116 42.7942C75.3192 42.5734 74.7822 42.4701 74.243 42.4922C72.1577 42.8463 71.1231 41.8227 70.3793 40.0167C69.866 38.7764 68.4596 38.4787 67.3089 39.1003C66.1582 39.7218 65.6808 40.9827 66.3589 42.0708C67.3367 43.6414 67.4627 44.8871 66.4244 46.6298C64.9601 49.0941 65.7457 52.3262 67.7396 54.3377C69.8609 56.4847 72.9036 57.016 75.9134 55.6981C76.9481 55.2501 77.8927 55.2584 78.6914 56.0201C79.0411 56.324 79.2862 56.7304 79.3917 57.1816C79.4972 57.6328 79.4577 58.1057 79.2789 58.5332C79.1071 59.0324 78.7685 59.4571 78.32 59.7356C77.8716 60.0142 77.3408 60.1296 76.8172 60.0624C76.0371 59.9695 75.2667 59.8083 74.5149 59.5806C73.2421 59.2599 72.0951 59.7808 71.6359 60.9146C71.5133 61.1915 71.448 61.4904 71.4439 61.7932C71.4398 62.096 71.497 62.3965 71.6121 62.6766C71.7272 62.9567 71.8978 63.2107 72.1136 63.4232C72.3294 63.6356 72.586 63.8022 72.8679 63.9129C73.6997 64.2624 74.6447 64.6842 75.4945 64.6011C77.6555 64.4094 78.801 65.2951 79.5585 67.2349C79.9912 68.3482 81.3806 68.6312 82.4468 68.0728C82.7132 67.9536 82.9535 67.783 83.154 67.5709C83.3544 67.3587 83.511 67.1091 83.6149 66.8364C83.7188 66.5637 83.7678 66.2731 83.7593 65.9814C83.7507 65.6897 83.6847 65.4025 83.5651 65.1363C83.3785 64.6728 83.1461 64.2291 82.8713 63.8119C82.3213 62.9951 82.3466 62.3613 82.9504 61.4855C83.8996 60.0705 84.2882 58.353 84.0405 56.6672C83.7928 54.9815 82.9265 53.4482 81.6104 52.3661C79.2618 50.4134 76.6602 50.2576 73.8952 51.4144C72.4954 52.0629 71.3526 51.7212 70.7227 50.5185Z" fill="#DBFF47"/>
    <path d="M62.1381 94.8505L33.7317 40.6184C31.6768 41.6947 29.7147 42.7507 27.7256 43.7643C26.2204 44.5528 24.7521 44.0384 24.2878 42.5326C24.1254 41.9397 24.1546 41.3106 24.3713 40.7353C26.9569 34.1467 29.5744 27.5743 32.2239 21.018C32.7685 19.6702 33.7205 19.181 35.1237 19.4991C42.0197 21.068 48.9142 22.6518 55.8071 24.2506C56.8715 24.4876 57.6424 25.0617 57.7817 26.2252C57.921 27.3887 57.4169 28.2216 56.3839 28.7627L50.3262 31.9357C51.4026 33.9906 52.3988 35.9465 53.4393 37.8791C53.6073 38.1307 53.6921 38.4286 53.6817 38.7309C53.6714 39.0332 53.5664 39.3247 53.3817 39.5642C47.5094 48.8178 47.6921 59.8927 54.096 68.7528C58.9558 75.4549 65.7268 78.8853 73.9926 79.2995C74.8708 79.3425 75.3358 79.602 75.6951 80.3776C76.2755 81.6204 76.9705 82.8126 77.5841 84.0379C78.2272 85.3466 77.9112 86.5652 76.6385 87.2412C71.8912 89.7654 67.0891 92.2572 62.1381 94.8505Z" fill="#12FF99"/>
    <path d="M36.1238 55.4444L57.8808 96.9818L49.6906 101.272L29.3269 62.3943C28.264 60.3652 28.5553 59.4134 30.5603 58.3585L36.1238 55.4444Z" fill="#12FF99"/>
    <path d="M45.3372 103.651C43.2233 104.758 41.2172 105.856 39.1724 106.88C37.838 107.536 36.6438 107.033 35.8768 105.578C33.4226 100.893 30.9704 96.2111 28.5162 91.5257C27.4341 89.4597 26.3519 87.3938 25.2698 85.3278C24.4214 83.7082 24.7709 82.5802 26.4068 81.7092C28.3215 80.7062 30.2363 79.7033 32.2432 78.6521L45.3372 103.651Z" fill="#12FF99"/>
  </g>
  <defs>
    <clipPath id="clip0_72_344">
      <rect width="79.9625" height="80" fill="white" transform="translate(0 37.1021) rotate(-27.6453)"/>
    </clipPath>
  </defs>
</svg>