<svg xmlns="http://www.w3.org/2000/svg" width="119" height="119" viewBox="0 0 119 119" fill="none">
    <style>
    /* Rotating border animation */
    @keyframes rotateBorder {
      0% { transform: rotate(0deg); }
      100% { transform: rotate(360deg); }
    }
    
    /* Color fade animation */
    @keyframes colorPulse {
      0%, 100% { 
        fill: #12FF99;
        opacity: 0.7;
      }
      50% { 
        fill: #DBFF47;
        opacity: 1;
      }
    }
    
    /* Apply border rotation */
    .rotating-border {
      position: absolute;
      width: 124px;
      height: 124px;
      border: 2px dashed #DBFF47;
      border-radius: 50%;
      top: -4px;
      left: -4px;
      animation: rotateBorder 8s linear infinite;
      pointer-events: none;
    }
    
    /* Apply color pulse to all paths */
    g > path {
      animation: colorPulse 3s ease-in-out infinite;
    }
    
    /* Staggered animations */
    path:nth-child(1) { animation-delay: 0s; }
    path:nth-child(2) { animation-delay: 0.3s; }
    path:nth-child(3) { animation-delay: 0.6s; }
    path:nth-child(4) { animation-delay: 0.9s; }
    path:nth-child(5) { animation-delay: 1.1s; }
    path:nth-child(6) { animation-delay: 1.4s; }
  </style>
   
  <rect class="rotating-border" x="-2" y="-2" width="124" height="124" rx="62"/>
  
  <g clip-path="url(#clip0_72_351)">
    <path d="M42.4866 101.923C36.727 99.6256 32.1078 95.1464 29.6343 89.4603C27.1608 83.7741 27.0332 77.3412 29.2794 71.5615C34.0104 59.5911 47.8824 53.5714 59.7844 58.3689C71.6864 63.1664 77.6288 76.891 72.8862 88.796C70.5756 94.5519 66.0839 99.1613 60.3898 101.62C54.6957 104.079 48.2606 104.188 42.4866 101.923ZM55.6499 61.4479C55.402 61.9854 55.1843 62.5362 54.9978 63.0979C54.6257 64.5125 53.9363 65.1565 52.2896 65.3006C47.0769 65.784 43.5062 70.8907 44.5827 76.0106C45.2754 79.3096 47.3537 81.4215 50.3705 82.7915C51.183 83.1638 51.8258 83.8281 52.1713 84.6524C52.5168 85.4767 52.5397 86.4007 52.2355 87.2412C51.9451 88.0809 51.3612 88.7875 50.5913 89.2311C49.8214 89.6746 48.9171 89.8252 48.045 89.6552C47.1729 89.4851 46.3915 89.0059 45.8445 88.3057C45.2976 87.6054 45.0219 86.7312 45.0681 85.8438C45.0771 85.478 45.1192 85.1112 45.1383 84.8382L40.2854 82.9203C39.2939 85.6892 39.277 88.4412 41.0097 90.5521C42.7424 92.663 43.0905 94.4558 41.757 96.7061C41.7362 96.7587 41.8126 96.8731 41.8305 96.9222L46.5297 98.7795C46.8437 98.1047 47.1175 97.412 47.3496 96.7049C47.6533 95.5344 48.2612 95.12 49.544 95.0332C50.7123 94.9438 51.8514 94.6247 52.8961 94.0942C53.9409 93.5637 54.8706 92.8322 55.6322 91.9418C56.3937 91.0513 56.9721 90.0193 57.334 88.9049C57.696 87.7905 57.8346 86.6156 57.7417 85.4476C57.4309 81.7619 55.517 79.1632 52.0879 77.677C51.202 77.3495 50.474 76.6971 50.0517 75.8522C49.6294 75.0074 49.5445 74.0335 49.8142 73.1284C50.0838 72.2232 50.6879 71.4546 51.5037 70.9786C52.3195 70.5026 53.2858 70.355 54.2065 70.5656C56.0134 70.8917 57.2353 72.6978 57.0766 74.7438L57.0088 75.5306L61.7565 77.4071C61.8682 77.2374 61.963 77.0572 62.0393 76.8689C63.0227 73.517 62.341 70.5216 59.9671 67.9983C59.2493 67.247 59.1419 66.6435 59.5783 65.7639C59.954 65.0146 60.1969 64.1989 60.5373 63.3375L55.6499 61.4479Z" fill="#DBFF47"/>
    <path d="M96.4459 24.8202L109.124 29.8309L89.364 79.8274L98.8594 83.5802L96.852 88.6595L91.1297 86.3979C87.7165 85.0489 84.3129 83.6757 80.8902 82.351C80.1097 82.0425 79.8932 81.6437 79.8017 80.7986C79.4774 77.7388 78.9828 74.6958 78.577 71.6411C78.5003 71.0544 78.3691 70.3806 78.5664 69.8695C84.4117 55.001 90.2828 40.1459 96.1798 25.3042C96.2579 25.1372 96.3468 24.9755 96.4459 24.8202Z" fill="#12FF99"/>
    <path d="M74.9589 64.0673C72.2013 60.039 68.4969 56.7493 64.1709 54.4873L74.3201 28.8076L86.9254 33.7896L74.9589 64.0673Z" fill="#12FF99"/>
    <path d="M30.0469 36.8017L42.8504 41.862L41.5957 45.0365C40.4561 47.9199 39.3448 50.8145 38.1502 53.6715C37.8604 54.2446 37.4398 54.7415 36.9223 55.122C34.4759 57.1475 32.0054 59.1433 29.5108 61.1094C29.1728 61.3732 28.552 61.6188 28.2107 61.4886C22.7846 59.4002 17.3882 57.2486 11.8802 55.0717L13.8621 50.0571L23.3292 53.7988L30.0469 36.8017Z" fill="#12FF99"/>
    <path d="M44.6353 52.1338L52.248 32.8721L64.8614 37.8572L59.0915 52.4562C54.3719 51.1662 49.4077 51.0555 44.6353 52.1338Z" fill="#12FF99"/>
  </g>
  <defs>
    <clipPath id="clip0_72_351">
      <rect width="91.3693" height="91.5388" fill="white" transform="translate(33.646) rotate(21.5652)"/>
    </clipPath>
  </defs>
</svg>