<svg xmlns="http://www.w3.org/2000/svg" width="120" height="120" viewBox="0 0 120 120" fill="none">
  <style>
    /* Rotating border animation */
    @keyframes rotateBorder {
      0% { transform: rotate(0deg); }
      100% { transform: rotate(360deg); }
    }
    
    /* Color fade animation */
    @keyframes colorPulse {
      0%, 100% { 
        fill: #12FF99;
        opacity: 0.7;
      }
      50% { 
        fill: #DBFF47;
        opacity: 1;
      }
    }
    
    /* Apply border rotation */
    .rotating-border {
      position: absolute;
      width: 124px;
      height: 124px;
      border: 2px dashed #DBFF47;
      border-radius: 50%;
      top: -4px;
      left: -4px;
      animation: rotateBorder 8s linear infinite;
      pointer-events: none;
    }
    
    /* Apply color pulse to all paths */
    g > path {
      animation: colorPulse 3s ease-in-out infinite;
    }
    
    /* Staggered animations */
    path:nth-child(1) { animation-delay: 0s; }
    path:nth-child(2) { animation-delay: 0.3s; }
    path:nth-child(3) { animation-delay: 0.6s; }
    path:nth-child(4) { animation-delay: 0.9s; }
    path:nth-child(5) { animation-delay: 1.2s; }
  </style>
   <!-- Rotating border element -->
  <rect class="rotating-border" x="-2" y="-2" width="124" height="124" rx="62"/>
  <g clip-path="url(#clip0_30_827)">
    <path d="M65.6313 41.0072C70.1766 37.9198 75.5367 36.2521 81.0326 36.2154C86.5286 36.1787 91.9129 37.7747 96.5036 40.8011C101.094 43.8275 104.685 48.1482 106.82 53.2157C108.955 58.2832 109.539 63.8695 108.498 69.2669C107.456 74.6642 104.836 79.6298 100.97 83.5344C97.1041 87.439 92.1654 90.1069 86.7799 91.2002C81.3944 92.2935 75.8045 91.7629 70.7183 89.6757C65.6322 87.5885 61.2787 84.0385 58.2094 79.4756C54.1036 73.3829 52.5793 65.912 53.9705 58.7009C55.3618 51.4899 59.5552 45.127 65.6313 41.0072ZM93.1239 77.166C92.3114 75.9663 91.5689 74.8036 90.7725 73.6942C90.5315 73.4416 90.3857 73.113 90.3602 72.7649C90.3346 72.4167 90.4309 72.0705 90.6326 71.7858C91.3886 70.473 91.7233 68.9595 91.5916 67.4496C91.4599 65.9398 90.868 64.5064 89.896 63.3432C88.8981 62.1432 87.5549 61.2798 86.0493 60.8707C84.5437 60.4616 82.949 60.5266 81.4824 61.057C80.774 61.3061 80.1357 61.7665 79.4432 62.0723C79.1428 62.2164 78.8166 62.2989 78.4837 62.3151C78.1508 62.3312 77.8181 62.2806 77.5049 62.1662C77.1918 62.0519 76.9046 61.8761 76.6603 61.6492C76.4159 61.4224 76.2194 61.1489 76.0822 60.845C75.9449 60.5412 75.8698 60.2129 75.8611 59.8797C75.8525 59.5464 75.9105 59.2149 76.0318 58.9045C76.1532 58.5941 76.3353 58.3111 76.5676 58.0722C76.7999 57.8333 77.0775 57.6433 77.3844 57.5133C78.6095 56.948 79.6028 57.4682 80.4598 58.2438L84.5262 55.4897C83.7602 54.3277 82.6736 53.4128 81.3983 52.8562C80.123 52.2995 78.7139 52.125 77.342 52.3539C77.0527 52.4323 76.7451 52.4086 76.471 52.2868C76.197 52.1649 75.9732 51.9523 75.8375 51.6848C75.0595 50.4448 74.1941 49.2584 73.3397 47.997L69.2078 50.7955C69.9916 51.9528 70.6914 53.0938 71.4861 54.1593C71.773 54.4588 71.9483 54.8478 71.9825 55.2611C72.0167 55.6744 71.9078 56.0868 71.674 56.4291C70.9086 57.9018 70.6536 59.5872 70.949 61.2212C71.2443 62.8553 72.0734 64.3455 73.3061 65.4582C74.5389 66.5709 76.1056 67.2432 77.7607 67.3696C79.4158 67.4961 81.0656 67.0696 82.4515 66.157C83.7073 65.3796 85.0572 65.5795 85.8679 66.5441C86.284 66.9945 86.5181 67.5832 86.525 68.1961C86.5318 68.809 86.3109 69.4025 85.9051 69.8614C85.0756 70.8284 83.7824 70.9446 82.4854 70.225C82.1884 70.0604 81.6976 69.892 81.4585 70.037C80.2604 70.7585 79.0826 71.6012 77.7991 72.4705C79.6575 74.982 82.0156 75.9733 84.8997 75.6574C85.2181 75.5815 85.5529 75.615 85.8502 75.7526C86.1474 75.8902 86.3896 76.1239 86.538 76.4159C87.2794 77.6019 88.1291 78.7652 88.9678 80.0034L93.1239 77.166Z" fill="#12FF99"/>
    <path d="M24.1323 32.0263C29.2236 28.7018 35.4324 25.7571 42.518 25.319C44.8386 25.1777 47.1672 25.4026 49.4185 25.9854C54.5729 27.3449 57.2382 31.6619 56.4873 36.9535C55.8551 41.3994 53.7169 45.1659 50.8913 48.5484C43.6993 57.139 34.7266 62.918 23.6741 65.1199C21.1665 65.5928 18.5985 65.656 16.07 65.3071C9.49607 64.442 6.17577 59.5895 7.4585 53.0824C8.38572 48.3748 10.8895 44.4675 13.946 40.8781C16.6888 37.6474 19.8797 34.9122 24.1323 32.0263Z" fill="#DBFF47"/>
    <path d="M15.0636 70.4791C28.3536 71.5559 38.9494 65.8988 48.8654 58.001C48.672 59.1822 48.5518 60.3742 48.5054 61.5704C48.5648 64.2481 48.7663 66.9364 48.8797 69.5943C48.8942 69.835 48.8572 70.0759 48.7712 70.3011C48.6851 70.5262 48.5521 70.7304 48.3809 70.9C42.6561 74.6423 36.5389 77.4068 29.6086 78.0493C28.1812 78.1707 26.7456 78.1578 25.3205 78.0106C21.5995 77.6386 18.5435 76.0902 16.5831 72.7475C16.1577 72.0115 15.6436 71.3355 15.0636 70.4791Z" fill="#DBFF47"/>
    <path d="M67.8003 94.2839C66.2894 95.3072 64.6947 96.5223 62.99 97.5418C58.3152 100.269 53.3705 102.341 47.9527 103.017C46.1758 103.23 44.3828 103.278 42.5967 103.161C37.6053 102.856 34.351 100.035 32.2544 95.6031C32.3784 95.557 32.509 95.5312 32.6412 95.5268C38.9734 96.3587 44.9406 94.9168 50.692 92.4507C53.2317 91.3608 55.6464 89.9617 58.0875 88.6515C58.7679 88.2864 59.1478 88.2992 59.8296 88.7996C62.4092 90.6989 65.0869 92.4359 67.8003 94.2839Z" fill="#DBFF47"/>
    <path d="M50.3009 75.6937C51.9704 78.6651 53.5588 81.5001 55.2716 84.5603C53.1616 85.5955 51.0112 86.7706 48.7702 87.737C44.3123 89.6309 39.7096 90.8294 34.8057 90.6452C29.5038 90.4379 25.9394 87.7652 23.7159 82.9632C33.5941 84.0831 42.1917 80.5727 50.3009 75.6937Z" fill="#DBFF47"/>
  </g>
  <defs>
    <clipPath id="clip0_30_827">
      <rect width="86.257" height="86.257" fill="white" transform="translate(0 48.3711) rotate(-34.1097)"/>
    </clipPath>
  </defs>
</svg>