<svg xmlns="http://www.w3.org/2000/svg" width="138" height="136" viewBox="0 0 138 136" fill="none">
  <style>
    /* Animation definition */
    @keyframes pulseFade {
        0% { opacity: 0.3; transform: scale(0.95); fill: #12FF99; }
        50% { opacity: 1; transform: scale(1); fill: #DBFF47; }
        100% { opacity: 0.3; transform: scale(0.95); fill: #12FF99; }
    }
    
    /* Apply to all paths */
    g > path {
      animation: pulseFade 2.5s ease-in-out infinite;
    }
    
    /* Staggered animations for visual interest */
    path:nth-child(1) { animation-delay: 0s; }
    path:nth-child(2) { animation-delay: 0.2s; } 
    path:nth-child(3) { animation-delay: 0.4s; } 
    path:nth-child(4) { animation-delay: 0.1s; }
    path:nth-child(5) { animation-delay: 0.3s; }
    path:nth-child(6) { animation-delay: 0.5s; } 
    path:nth-child(7) { animation-delay: 0.7s; } 
    path:nth-child(8) { animation-delay: 0.9s; } 
    path:nth-child(9) { animation-delay: 1s; } 
    path:nth-child(10) { animation-delay: 1.2s; } 
    path:nth-child(11) { animation-delay: 1.4s; } 
  </style>
  <g clip-path="url(#clip0_115_2390)">
    <path d="M36.8655 93.3889C26.9031 88.586 19.147 81.9066 15.8697 71.1368C13.6634 63.8377 14.8698 56.8134 19.2294 50.6404C27.2164 39.3363 38.1147 32.303 51.7411 29.5698C53.1202 29.2893 54.5542 29.5655 55.7304 30.3382C62.047 34.0665 68.4277 37.6841 74.7469 41.4077C75.471 41.8066 76.0542 42.4193 76.4169 43.1621C80.7512 54.2232 80.4322 65.4188 77.2508 76.6765C77.1463 76.9058 77.0102 77.1193 76.8467 77.311C69.3186 71.2807 61.0181 69.3852 51.9821 72.9759C42.946 76.5666 38.225 83.6944 36.8655 93.3889Z" fill="#12FF99"/>
    <path d="M43.0981 84.8511C45.135 81.3536 48.1622 78.5379 51.7978 76.7593C55.4334 74.9807 59.5144 74.3189 63.5257 74.8576C67.5371 75.3962 71.299 77.1111 74.3366 79.7858C77.3742 82.4604 79.5515 85.975 80.5935 89.8859C81.6355 93.7968 81.4956 97.9287 80.1915 101.76C78.8874 105.592 76.4775 108.951 73.2659 111.414C70.0543 113.877 66.1851 115.334 62.1465 115.6C58.1079 115.866 54.081 114.93 50.574 112.909C48.2361 111.563 46.1873 109.767 44.5453 107.626C42.9033 105.485 41.7004 103.041 41.0057 100.434C40.3111 97.8265 40.1383 95.1078 40.4974 92.4337C40.8565 89.7595 41.7403 87.1827 43.0981 84.8511ZM64.1229 85.2219L63.3169 84.9651C60.0134 83.799 56.8663 84.9279 55.5427 87.7585C54.1903 90.671 55.311 93.8749 58.354 95.6724C59.3783 96.2649 60.4185 96.8298 61.4268 97.4501C62.684 98.2574 63.0937 99.6461 62.4218 100.797C62.1412 101.364 61.6474 101.796 61.0485 101.999C60.4496 102.202 59.7947 102.159 59.2273 101.88C58.3016 101.465 57.409 100.979 56.5574 100.428C54.029 98.965 53.9859 98.7307 54.4614 95.8652C54.5578 95.262 54.0668 94.1097 53.6278 93.985C53.0125 93.8138 52.0847 94.2253 51.5085 94.6679C51.0949 94.989 50.9645 95.7572 50.8377 96.3489C50.2413 99.1999 51.6428 101.205 53.8816 102.913C53.3691 103.799 52.8359 104.593 52.4188 105.442C51.9588 106.407 52.0193 107.335 53.1106 107.886C54.1254 108.399 54.8279 107.962 55.3464 107.055C55.8189 106.239 56.2913 105.422 56.7638 104.605C57.3063 104.796 57.6724 104.94 58.0473 105.058C61.2974 106.083 64.3188 104.863 65.592 102.034C66.8653 99.2048 65.7891 96.0942 62.8991 94.373C61.8748 93.7804 60.8459 93.1852 59.8217 92.5926C58.3831 91.7049 57.9287 90.2658 58.6647 89.0043C59.4006 87.7428 60.8046 87.4343 62.3545 88.2571C63.2987 88.754 64.2001 89.3248 65.1228 89.8586C66.8666 90.9106 67.1629 91.6546 66.5599 93.6335C66.2215 94.7187 66.4061 95.5706 67.506 95.9791C68.606 96.3876 69.3531 95.7668 69.7597 94.7766C70.6125 92.6959 70.4963 90.6827 69.0985 88.8518C68.4584 88.1221 67.7783 87.4284 67.0613 86.7741C67.5258 85.9713 67.9742 85.1962 68.4253 84.4164C68.9805 83.4568 69.0283 82.5546 67.9691 81.9479C66.9098 81.3413 66.1178 81.8375 65.5286 82.7282C65.0641 83.531 64.6499 84.3321 64.1321 85.2272L64.1229 85.2219Z" fill="#DBFF47"/>
    <path d="M69.1438 28.3995C66.3155 26.7632 63.5139 25.0808 60.659 23.4907C59.6741 22.9578 59.2801 22.3296 59.3805 21.23C59.6698 17.9304 59.8905 14.6218 60.1845 11.3249C60.2568 10.8254 60.4172 10.3427 60.6582 9.89932C61.5098 8.15049 62.2566 7.84968 63.8256 8.9483C65.6985 10.1885 67.443 11.6124 69.0333 13.1989C72.6306 17.0444 77.2865 19.738 82.4133 20.9398C84.628 21.4759 86.7248 22.535 88.8483 23.431C90.2091 24.0274 90.5957 25.1686 89.5569 26.3042C88.2903 27.7235 86.8778 29.0054 85.3428 30.1289C83.3016 31.5283 81.1839 33.5176 78.9687 33.6956C77.1015 33.8469 75.0437 31.7943 73.0852 30.6982C71.7815 29.9501 70.4634 29.1629 69.1438 28.3995Z" fill="#12FF99"/>
    <path d="M105.495 68.5383C109.942 71.5604 114.303 74.539 117.802 78.6139C118.466 79.3779 119.045 80.2124 119.527 81.1025C120.296 82.5631 119.889 83.4052 118.263 83.1916C115.417 82.912 112.61 82.3206 109.893 81.4279C101.771 78.4351 94.4476 74.0628 88.4951 67.6508C87.6888 66.7106 86.9873 65.6852 86.403 64.593C85.7197 63.4218 86.2303 62.6457 87.4707 62.7475C89.6435 62.9515 91.894 63.0958 93.9213 63.8068C97.8894 65.1972 101.673 66.949 105.495 68.5383Z" fill="#DBFF47"/>
    <path d="M80.5052 73.2017C89.1756 83.2675 100.995 90.1055 114.043 92.6046C113.715 94.2993 112.426 95.0065 110.777 94.6195C107.458 93.8322 104.073 93.1054 100.923 91.8436C94.1375 89.1667 87.9703 85.1315 82.8002 79.9855C81.9476 79.0891 81.1583 78.1344 80.4379 77.1286C79.3933 75.7729 79.1573 74.3925 80.5052 73.2017Z" fill="#DBFF47"/>
    <path d="M83.8121 67.5275C92.8152 77.7673 103.942 84.2723 117.327 86.917C116.95 88.6327 115.708 89.3427 114.099 88.9414C110.516 88.0449 106.81 87.3296 103.454 85.8617C96.8272 82.9457 90.6315 79.232 85.6162 73.8611C84.8702 73.0197 84.1753 72.1344 83.5352 71.21C82.5672 69.8494 82.5958 68.5974 83.8121 67.5275Z" fill="#DBFF47"/>
    <path d="M110.778 98.2156C109.841 100.346 109.454 100.59 106.963 100.319C102.932 99.8226 99.0313 98.5689 95.4663 96.6238C92.0339 94.8289 88.7299 92.7696 85.4718 90.663C84.6376 90.1249 84.0908 89.0265 83.6158 88.0805C83.0571 86.8252 82.5669 85.5405 82.1474 84.232C90.7992 91.1833 99.8518 96.4945 110.778 98.2156Z" fill="#DBFF47"/>
    <path d="M107.509 103.813C107.017 105.856 105.645 106.429 103.997 105.999C100.42 105.081 96.833 104.139 93.3467 102.917C91.138 102.125 89.1033 100.831 87.0414 99.6692C84.2571 98.0954 84.2731 98.0677 84.8644 94.5548C91.9215 98.9085 99.0697 102.902 107.509 103.813Z" fill="#DBFF47"/>
    <path d="M79.1875 110.434C79.8663 109.484 80.4351 108.693 81.1119 107.736C87.3331 111.267 93.6194 114.473 100.812 115.197C100.09 117.403 99.66 117.752 97.4666 117.573C92.7319 117.242 88.4439 115.34 84.2379 113.307C82.5245 112.5 80.95 111.454 79.1875 110.434Z" fill="#DBFF47"/>
    <path d="M83.8718 101.795C90.2701 105.318 96.6891 108.816 104.175 109.502C103.796 111.456 102.533 111.914 100.832 111.767C96.0824 111.366 91.8255 109.463 87.6054 107.465C86.6907 107.035 85.8282 106.493 84.9462 105.995C82.481 104.593 82.4809 104.593 83.8718 101.795Z" fill="#DBFF47"/>
    <path d="M74.7449 37.3666L58.7949 28.139C59.0396 27.1413 59.3881 26.6347 60.44 27.2433C65.3423 30.1164 70.2767 32.9341 75.3334 35.8597L74.7449 37.3666Z" fill="#12FF99"/>
  </g>
  <defs>
    <clipPath id="clip0_115_2390">
      <rect width="103.387" height="96.6334" fill="white" transform="translate(48.3911) rotate(30.0509)"/>
    </clipPath>
  </defs>
</svg>