<svg xmlns="http://www.w3.org/2000/svg" width="111" height="101" viewBox="0 0 111 101" fill="none">
  <style>
    /* Rotating border animation */
    @keyframes rotateBorder {
      0% { transform: rotate(0deg); }
      100% { transform: rotate(360deg); }
    }
    
    /* Color pulse animation */
    @keyframes colorPulse {
      0%, 100% { 
        fill: #12FF99;
        opacity: 0.2;
      }
      50% { 
        fill: #DBFF47;
        opacity: 1;
      }
    }
     
    /* Rotating border element */
    .rotating-border {
      position: absolute;
      width: 120px;
      height: 120px;
      border: 2px dashed #DBFF47;
      border-radius: 50%;
      top: 2px;
      left: 2px;
      animation: rotateBorder 12s linear infinite;
      pointer-events: none;
    }
    
    /* Apply animations to paths */
    g > path {
      animation: colorPulse 4s ease-in-out infinite, glow 3s ease-in-out infinite;
    }
    
    /* Staggered animations */
    path:nth-child(1) { animation-delay: 0s; }
    path:nth-child(2) { animation-delay: 0.5s; }
    path:nth-child(3) { animation-delay: 1s; }
    path:nth-child(4) { animation-delay: 1.5s; }
  </style>
  
  <!-- Rotating border -->
  <rect class="rotating-border" x="2" y="2" width="120" height="120" rx="60"/>
  <g clip-path="url(#clip0_55_445)">
    <path d="M43.9828 47.1125C44.4459 46.5411 44.8622 46.0421 45.2606 45.525C46.8672 43.4625 46.7701 41.0338 44.9235 39.1657C44.2313 38.4704 43.9825 37.9513 44.4215 36.9477C48.1818 28.3921 51.8888 19.8168 55.5426 11.222C56.0372 10.0779 56.5999 9.58552 57.8635 10.1369C67.9336 14.5108 78.0098 18.8667 88.0921 23.2046C88.3944 23.3655 88.6856 23.5464 88.9638 23.7461L86.0412 30.5069C84.8252 33.3196 83.6056 36.1409 82.3953 38.9406C81.6871 40.5788 81.9351 41.1952 83.6017 41.9208C88.1479 43.8861 92.7028 45.8552 97.2403 47.8167L98.9175 48.5418C97.5386 51.7315 96.1838 54.7465 94.9176 57.7945C94.3816 59.1059 93.8855 59.9202 92.1165 59.7882C90.0005 59.6142 88.1727 61.4628 87.7933 63.6135C87.6361 64.5125 87.5836 65.4311 87.4637 66.5058C85.2745 66.3464 83.3229 66.1251 81.7678 64.2132C80.1622 62.2442 78.3496 60.4536 76.3612 58.872C74.0607 57.0545 71.1585 56.8904 68.3366 56.8381C67.6915 56.8675 67.0484 56.7462 66.4582 56.484C65.8681 56.2217 65.3471 55.8256 64.9366 55.3271C63.8278 54.1319 62.6429 53.0097 61.3891 51.9676C57.9623 48.9122 53.8352 48.702 49.5741 49.1232C47.1733 49.4176 45.9656 49.0344 43.9828 47.1125ZM65.3513 46.0625C64.8852 45.5535 64.5664 44.9272 64.4293 44.2508C64.2922 43.5744 64.3419 42.8734 64.5729 42.2231C64.9186 41.138 64.7936 40.261 63.6442 39.8618C62.3671 39.4486 61.744 40.2595 61.4522 41.3627C60.6532 44.1035 61.2973 46.4806 63.1517 48.6042C63.4748 48.9754 63.4746 49.6183 63.6758 50.1167C63.9489 50.8057 64.1105 51.8478 64.6089 52.0632C65.1073 52.2787 65.9524 51.6564 66.6228 51.3907C67.0735 51.2049 67.4945 50.7902 67.9205 50.7686C71.0472 50.6749 73.4704 49.3769 74.7486 46.4677C76.0268 43.5585 75.4143 40.799 73.2227 38.4319C72.9749 38.1602 72.6257 37.6594 72.7113 37.4495C73.5649 35.3084 74.5027 33.1985 75.4713 30.9579C76.6178 32.4823 76.6523 32.7235 76.2253 34.8536C75.9432 36.2439 76.5287 37.3406 77.6217 37.1444C77.9916 37.0542 78.337 36.8834 78.6333 36.6443C78.9297 36.4052 79.1695 36.1036 79.3359 35.7611C80.2924 33.0369 79.6666 30.57 77.754 28.3904C77.4068 28.0037 77.3913 27.3849 77.2026 26.8815C76.9376 26.1857 76.8113 25.1332 76.3191 24.9153C75.8269 24.6974 74.9522 25.2812 74.2663 25.571C73.8032 25.7617 73.3819 26.2483 72.9424 26.2537C69.6906 26.2677 67.3017 27.6886 66.0438 30.6579C64.7859 33.6273 65.464 36.2352 67.6204 38.5408C67.9016 38.8423 68.15 39.4693 68.0263 39.7913C67.2276 41.8173 66.3236 43.8132 65.3513 46.0625Z" fill="#DBFF47"/>
    <path d="M45.6859 102.167C49.5463 97.6635 46.6696 92.7524 41.6183 92.6931C40.5352 87.5955 38.6692 86.1768 33.4801 86.6031C33.4517 85.4436 33.1052 84.3143 32.4783 83.3384C31.8515 82.3626 30.9685 81.5778 29.9258 81.0699C30.1282 80.3427 30.294 79.6058 30.4225 78.8619C30.6404 77.5125 30.3797 76.1294 29.6854 74.9519C28.9911 73.7744 27.907 72.8767 26.6207 72.4142C24.4313 71.5294 24.1053 69.547 25.6401 67.8289C30.6454 62.1999 35.6186 56.5262 40.6053 50.8686C40.9357 50.497 41.3008 50.1404 41.3648 50.0755C43.3454 50.9317 45.0706 51.7599 46.8559 52.4133C47.5315 52.6591 48.3434 52.542 49.106 52.527C50.4335 52.4785 51.7657 52.324 53.0733 52.2977C56.6736 52.2389 59.3132 54.0693 61.6821 56.8114C61.1232 56.9144 60.697 57.008 60.2703 57.055C55.0405 57.6331 49.9315 59.0161 45.1242 61.1549C43.9434 61.6732 43.3076 62.3705 43.5011 63.7195C43.6508 64.813 43.6155 65.9654 43.8328 67.0572C44.5266 70.5926 46.3515 72.2611 49.9519 72.583C55.1264 73.071 60.3167 73.463 65.4793 74.0025C66.2805 74.0653 67.0475 74.3541 67.6912 74.8352C73.4994 79.6402 77.9812 85.5384 81.809 91.9974C82.5958 93.3303 82.9515 94.7803 81.97 96.182C81.6422 96.7125 81.1485 97.1201 80.5655 97.3414C79.9825 97.5628 79.3427 97.5856 78.7454 97.4062C77.8443 97.0981 77.0445 96.5496 76.4324 95.8199C73.7858 92.6492 71.2363 89.3969 68.6562 86.1675C68.529 86.0096 68.4161 85.8425 68.2888 85.6846C67.5545 84.8014 66.6695 84.2902 65.657 85.1332C64.6444 85.9763 65.044 86.8486 65.719 87.6908L70.8704 94.1459C71.1569 94.5063 71.4578 94.8576 71.7095 95.239C72.2069 95.9317 72.4174 96.7898 72.2969 97.634C72.1764 98.4782 71.7343 99.2431 71.0629 99.7689C70.3966 100.303 69.5458 100.552 68.6965 100.462C67.8471 100.371 67.068 99.9483 66.5294 99.2854C64.7524 97.1849 63.0723 95.003 61.3456 92.8574C61.0172 92.4274 60.6435 91.9829 60.2834 91.5546C59.604 90.7466 58.7692 90.6429 57.9812 91.2641C57.1931 91.8853 57.1469 92.7655 57.7668 93.5684C58.9159 95.0631 60.1159 96.5232 61.2792 98.0085C62.7093 99.8407 62.6207 101.783 61.0676 103.02C59.5144 104.256 57.5811 103.945 56.1286 102.165C54.4216 100.069 52.7208 97.971 51.0529 95.8561C50.3126 94.9033 49.4517 94.4437 48.4646 95.2515C47.4776 96.0593 47.8062 97.0244 48.5442 97.935C49.6547 99.2689 50.7428 100.619 51.7943 101.994C52.9026 103.44 52.8163 104.854 51.6249 105.789C50.4335 106.725 49.0665 106.519 47.8992 105.115C47.2198 104.307 46.5647 103.442 45.9022 102.595C45.8101 102.463 45.7373 102.319 45.6859 102.167Z" fill="#12FF99"/>
    <path d="M87.2028 69.8343C86.5207 76.9927 85.8673 83.8704 85.1785 91.1751C84.1131 89.5109 83.2808 88.1995 82.4411 86.9055C78.8525 81.1896 74.3569 76.0964 69.1309 71.8258C68.4722 71.2942 67.6811 70.9522 66.8426 70.8366C61.5194 70.2998 56.1917 69.8329 50.8489 69.4008C47.8739 69.1434 46.502 67.5576 46.8158 64.571C46.8732 64.3728 46.9732 64.1895 47.1088 64.034C47.2445 63.8785 47.4124 63.7546 47.601 63.6708C55.2974 60.3861 63.7554 59.3053 72.0305 60.5492C74.534 60.9216 76.4911 62.534 77.8289 64.532C80.0688 67.8819 83.0133 69.7566 87.2028 69.8343Z" fill="#12FF99"/>
    <path d="M88.7772 95.1897C88.6099 94.3869 88.2491 93.5675 88.3136 92.7878C88.7893 87.2015 89.348 81.6255 89.89 76.0525C90.2353 72.4537 90.5812 68.8534 90.9277 65.2517C91.1224 63.2784 91.5308 62.9405 93.4063 63.0877C96.6527 63.3835 99.8989 63.6878 103.145 64.0005C104.982 64.1774 105.361 64.6448 105.183 66.4248L102.597 93.9678C102.403 95.9982 102.011 96.3584 99.9985 96.1828C96.7 95.8885 93.4059 95.5601 90.1149 95.2485C89.8149 95.2166 89.5176 95.1549 89.2189 95.108L88.7772 95.1897ZM94.3369 68.7881L94.9453 69.118C95.596 68.8026 96.4156 68.6322 96.8145 68.1257C97.4189 67.3582 97.167 66.4417 96.2454 65.9559C95.3238 65.47 94.4284 65.7208 94.1179 66.6771C93.9213 67.2865 94.2573 68.0799 94.3388 68.7838L94.3369 68.7881Z" fill="#12FF99"/>
    <path d="M21.8225 66.1888C20.7617 65.2158 19.9994 64.552 19.2235 63.8719C17.1956 62.09 15.1839 60.2944 13.128 58.5416C12.0646 57.6343 11.9308 56.7895 12.8952 55.689C19.163 48.5911 25.4164 41.475 31.6554 34.3407C32.5383 33.3335 33.4206 33.3034 34.4196 34.1931C37.0134 36.4906 39.6255 38.7772 42.2561 41.0528C43.3535 42.0005 43.2626 42.9487 42.3797 43.9559C36.146 51.0342 29.9254 58.1182 23.6677 65.145C23.2012 65.6532 22.4051 65.8645 21.8225 66.1888ZM38.882 43.5035L39.1462 42.8924C38.7397 42.2383 38.4669 41.2511 37.896 41.0249C37.3251 40.7986 36.0613 41.3068 35.9384 41.7218C35.877 42.1025 35.9116 42.4925 36.0389 42.8565C36.1663 43.2206 36.3824 43.5471 36.6678 43.8065C37.1529 44.1242 38.1221 43.643 38.882 43.5035Z" fill="#12FF99"/>
    <path d="M85.8598 39.3274L90.8414 27.8037L97.3618 44.2997L85.8598 39.3274Z" fill="#DBFF47"/>
    <path d="M23.0422 91.555C20.7678 90.51 20.4313 88.0756 22.0571 86.8135C23.3613 85.8328 24.7365 84.9505 26.1714 84.1737C26.7577 83.8456 27.4463 83.7516 28.099 83.9106C28.7517 84.0697 29.3199 84.4699 29.6895 85.0309C30.0736 85.5536 30.2458 86.2022 30.1714 86.8465C30.0971 87.4908 29.7817 88.0832 29.2886 88.5046C27.8719 89.5857 26.3697 90.5499 24.7966 91.3875C24.2017 91.7167 23.3461 91.5423 23.0422 91.555Z" fill="#12FF99"/>
    <path d="M26.8599 79.3686C26.633 79.7112 26.3564 80.0181 26.0393 80.2793C24.8302 81.1249 23.5945 81.9486 22.3182 82.6879C21.7079 83.0755 20.9687 83.2048 20.2631 83.0474C19.5575 82.89 18.9434 82.4587 18.5558 81.8485C18.1682 81.2382 18.0389 80.499 18.1963 79.7934C18.3537 79.0878 18.785 78.4737 19.3952 78.0861C20.6472 77.2127 21.935 76.3755 23.2603 75.6419C23.7467 75.3451 24.3199 75.2232 24.885 75.2963C25.4501 75.3694 25.9733 75.6333 26.3682 76.0441C27.2732 76.8777 27.5098 77.9367 26.8599 79.3686Z" fill="#12FF99"/>
    <path d="M38.2897 93.3011C37.8858 93.8008 37.4405 94.2656 36.9586 94.6906C35.7408 95.5324 34.5138 96.3599 33.2331 97.0973C32.6199 97.4674 31.8875 97.5866 31.1886 97.4301C30.4897 97.2736 29.8781 96.8535 29.4813 96.2573C29.29 95.9555 29.1606 95.6188 29.1006 95.2666C29.0406 94.9144 29.0512 94.5539 29.1318 94.2058C29.2124 93.8578 29.3614 93.5292 29.57 93.2392C29.7787 92.9493 30.0429 92.7037 30.3473 92.5167C31.5993 91.6434 32.8896 90.8123 34.2124 90.0725C34.7148 89.7462 35.3224 89.6231 35.9121 89.7281C36.5019 89.8331 37.0297 90.1584 37.3885 90.638C37.9473 91.3682 38.0325 92.4801 38.2897 93.3011Z" fill="#12FF99"/>
    <path d="M44.4553 99.0168C42.7673 100.028 41.0287 100.952 39.2463 101.785C38.8788 101.945 37.7299 101.176 37.5624 100.636C37.4752 100.26 37.4765 99.8701 37.5661 99.4955C37.6557 99.1209 37.8312 98.7723 38.0788 98.4772C39.1088 97.5619 40.2832 96.8235 41.5543 96.2917C41.903 96.1994 42.2682 96.1883 42.6219 96.2591C42.9756 96.33 43.3084 96.4809 43.5946 96.7004C44.0614 97.108 44.1088 97.9978 44.4553 99.0168Z" fill="#12FF99"/>
    <path d="M68.4569 47.3741L71.1678 41.103C71.6383 41.6003 71.9526 42.2247 72.0717 42.8988C72.1908 43.573 72.1095 44.2672 71.8379 44.8956C71.6016 45.6087 71.149 46.2305 70.5432 46.6747C69.9373 47.1189 69.2081 47.3633 68.4569 47.3741Z" fill="#12FF99"/>
    <path d="M69.6371 35.7916C69.1672 35.265 68.8606 34.613 68.755 33.9151C68.6493 33.2173 68.749 32.5038 69.042 31.8616C69.6152 30.5355 70.6382 29.7278 72.3313 29.5595L69.6371 35.7916Z" fill="#12FF99"/>
  </g>
  <defs>
    <clipPath id="clip0_55_445">
      <rect width="98.0176" height="91.6295" fill="white" transform="translate(36.4246 0.879395) rotate(23.3787)"/>
    </clipPath>
  </defs>
</svg>