<svg xmlns="http://www.w3.org/2000/svg" width="111" height="101" viewBox="0 0 111 101" fill="none">
  <style>
    /* Rotating border animation */
    @keyframes rotateBorder {
      0% { transform: rotate(0deg); }
      100% { transform: rotate(360deg); }
    }
    
    /* Color pulse animation */
    @keyframes colorPulse {
      0%, 100% { 
        fill: #12FF99;
        opacity: 0.2;
      }
      50% { 
        fill: #DBFF47;
        opacity: 1;
      }
    }
     
    /* Rotating border element */
    .rotating-border {
      position: absolute;
      width: 120px;
      height: 120px;
      border: 2px dashed #DBFF47;
      border-radius: 50%;
      top: 2px;
      left: 2px;
      animation: rotateBorder 12s linear infinite;
      pointer-events: none;
    }
    
    /* Apply animations to paths */
    g > path {
      animation: colorPulse 4s ease-in-out infinite, glow 3s ease-in-out infinite;
    }
    
    /* Staggered animations */
    path:nth-child(1) { animation-delay: 0s; }
    path:nth-child(2) { animation-delay: 0.5s; }
    path:nth-child(3) { animation-delay: 1s; }
    path:nth-child(4) { animation-delay: 1.5s; }
  </style>
  
  <!-- Rotating border -->
  <rect class="rotating-border" x="2" y="2" width="120" height="120" rx="60"/>
  <g clip-path="url(#clip0_55_242)">
    <path d="M39.3451 82.8416L20.3787 58.4288C24.9298 54.5971 29.2304 50.7228 33.8134 47.2376C36.5366 45.1592 40.0273 45.3297 43.326 45.399C46.6248 45.4683 50.0407 45.4896 53.3715 45.804C55.1955 45.9579 56.9743 46.4532 58.6153 47.2642C61.5638 48.8848 64.8994 49.668 68.2611 49.5291C70.4887 49.4172 72.7323 49.5291 74.9652 49.5877C79.3724 49.7103 82.426 52.6786 82.314 56.6701C82.2021 60.6617 79.2658 63.3635 74.8532 63.3156C67.2912 63.2303 59.7291 63.0758 52.1671 62.9746C51.4583 62.9746 50.5683 62.8892 50.078 63.2516C49.7601 63.4853 49.4944 63.7829 49.298 64.1252C49.1017 64.4674 48.9789 64.847 48.9376 65.2394C48.9376 65.7724 49.7423 66.4758 50.3445 66.8382C50.7921 67.11 51.4956 67.0034 52.0871 67.0087C59.9103 67.1099 67.7335 67.2645 75.5354 67.2858C77.2015 67.3186 78.8522 66.9603 80.3547 66.2396C81.8573 65.5189 83.1699 64.4558 84.1872 63.1359C85.2045 61.816 85.8981 60.2759 86.2123 58.6393C86.5265 57.0027 86.4526 55.3153 85.9965 53.7125C85.6448 52.3802 85.7833 51.6288 86.9131 50.7601C91.1338 47.5147 95.2479 44.136 99.4366 40.8426C102.528 38.4072 106.221 38.5457 108.693 41.1197C111.166 43.6936 111.235 47.472 108.693 50.3977C101.613 58.53 94.5071 66.6356 87.3767 74.7146C83.9554 78.5676 79.5003 80.3422 74.3843 80.2783C66.8862 80.1824 59.3881 80.0545 51.9006 79.7454C47.4188 79.5695 43.1928 79.9105 39.3451 82.8416Z" fill="#12FF99"/>
    <path d="M24.8285 19.5579C24.9511 8.24414 33.3872 -0.0107329 44.7223 0.090521C55.9135 0.191775 64.2216 8.77172 64.0511 20.1228C63.8965 30.6692 54.8743 39.3078 44.1574 39.1745C33.4404 39.0413 24.7166 30.1416 24.8285 19.5579ZM37.805 21.5937C37.805 22.9419 37.7677 24.2582 37.805 25.5372C37.8956 28.2924 39.4038 29.8005 42.1003 29.8325C43.8749 29.8645 45.6495 29.8325 47.4295 29.8325C48.7831 29.8325 49.8436 29.4541 49.8755 27.93C49.9075 26.3313 48.8097 25.8303 47.3815 25.8356H41.9457V21.5723C43.4699 21.3645 45.4577 21.8281 45.5803 19.6858C45.7295 17.1172 43.3687 17.698 41.9138 17.3037C41.7806 14.5485 42.7771 13.3868 45.6442 12.9018C45.7668 13.1683 45.9267 13.4347 46.0386 13.7438C46.5129 14.9802 47.3868 15.5824 48.6605 15.1241C49.9341 14.6658 50.094 13.5679 49.8329 12.3476C49.6226 11.3434 49.0694 10.4437 48.2681 9.80285C47.4669 9.16204 46.4676 8.82008 45.4417 8.83568C43.6229 8.88123 41.8756 9.55376 40.4957 10.7395C39.1157 11.9252 38.1878 13.5513 37.8689 15.3425C37.7677 16.03 37.6878 16.7228 37.5919 17.4742C35.7853 17.5168 33.6909 17.1971 33.7176 19.5792C33.7442 21.9614 35.8652 21.3805 37.805 21.5937Z" fill="#DBFF47"/>
    <path d="M81.2962 4.66318e-05C91.2244 0.191896 99.8363 9.05961 99.5059 20.2881C99.3716 24.0863 98.1205 27.7606 95.9092 30.8515C93.6978 33.9425 90.6243 36.3129 87.073 37.6665C79.4577 40.6295 71.4373 38.9988 65.9642 33.4511C64.957 32.4279 64.7332 31.6712 65.4313 30.2536C69.0072 23.0966 68.9645 15.8649 65.3833 8.69189C64.7705 7.46086 64.8505 6.73611 65.7671 5.80883C69.6254 1.93987 74.2298 -0.0745615 81.2962 4.66318e-05ZM86.4921 13.7706C85.2718 12.305 84.3605 10.9621 83.2094 9.91759C82.458 9.24612 81.8717 8.79848 81.7065 7.66337C81.6106 6.97058 80.4861 5.94204 79.836 5.94737C79.1858 5.95269 78.0774 6.98123 77.9708 7.69001C77.9254 8.15845 77.7662 8.6087 77.5071 9.00158C77.2479 9.39445 76.8967 9.71805 76.484 9.94423C75.4127 10.6035 74.5777 11.5852 74.099 12.7485C73.6203 13.9118 73.5224 15.1968 73.8194 16.4192C74.0627 17.6504 74.6782 18.7773 75.5827 19.6475C76.4871 20.5176 77.637 21.0891 78.8768 21.2847C79.4576 21.3913 80.225 21.2847 80.5821 21.6044C81.1949 22.1693 81.9463 23.0326 81.909 23.7361C81.833 24.1573 81.6548 24.5535 81.39 24.8899C81.1252 25.2262 80.7819 25.4924 80.3902 25.6652C79.7241 25.8571 78.7915 25.2389 78.0241 24.8392C77.7417 24.69 77.7523 24.0185 77.4912 23.8427C76.7451 23.3737 75.61 22.5317 75.173 22.7768C74.4802 23.1765 73.6755 24.5728 73.91 25.143C74.4429 26.5286 75.61 27.6743 76.5053 28.932C76.9319 29.6312 77.3981 30.3056 77.9015 30.9518C78.5037 31.6126 79.1965 32.5505 79.9319 32.6198C80.4968 32.6784 81.6266 31.6659 81.7119 31.021C81.8717 29.8753 82.3993 29.3637 83.2733 28.7988C84.3165 28.1041 85.1257 27.1106 85.595 25.9485C86.0643 24.7863 86.1718 23.5095 85.9034 22.2852C85.6351 21.0609 85.0033 19.9462 84.091 19.0869C83.1786 18.2275 82.0281 17.6636 80.7899 17.469C79.3724 17.2718 77.8109 17.1812 77.7683 15.38C77.8068 14.9233 77.951 14.4818 78.1897 14.0906C78.4283 13.6993 78.7548 13.369 79.1432 13.1257C80.7846 12.3477 81.4987 13.6587 82.2768 14.9004C82.5261 15.2109 82.8481 15.455 83.2144 15.6112C83.5807 15.7673 83.9798 15.8307 84.3764 15.7957C85.0639 15.6251 85.5755 14.6978 86.4921 13.7706Z" fill="#DBFF47"/>
    <path d="M26.2727 100.135C25.1483 99.4205 23.6668 98.9249 22.8567 97.9017C15.5487 88.7 8.31349 79.4397 1.15111 70.1208C-0.692773 67.7333 -0.282429 65.0954 2.08371 63.1929C4.21537 61.4556 6.38788 59.7592 8.60126 58.1036C11.0313 56.2864 13.6959 56.5421 15.5664 58.9189C22.8247 68.1561 30.0404 77.4307 37.2134 86.7425C38.988 89.0447 38.679 91.5387 36.478 93.4039C34.2771 95.2691 31.879 97.1343 29.4808 98.8396C28.6708 99.4045 27.5944 99.6124 26.2727 100.135Z" fill="#12FF99"/>
  </g>
  <defs>
    <clipPath id="clip0_55_242">
      <rect width="110.569" height="100.135" fill="white"/>
    </clipPath>
  </defs>
</svg>