<svg xmlns="http://www.w3.org/2000/svg" width="120" height="121" viewBox="0 0 120 121" fill="none">
  <style>
    /* Rotating border animation */
    @keyframes rotateBorder {
      0% { transform: rotate(0deg); }
      100% { transform: rotate(360deg); }
    }
    
    /* Color fade animation */
    @keyframes colorPulse {
      0%, 100% { 
        fill: #12FF99;
        opacity: 0.7;
      }
      50% { 
        fill: #DBFF47;
        opacity: 1;
      }
    }
    
    /* Apply border rotation */
    .rotating-border {
      position: absolute;
      width: 124px;
      height: 124px;
      border: 2px dashed #DBFF47;
      border-radius: 50%;
      top: -4px;
      left: -4px;
      animation: rotateBorder 8s linear infinite;
      pointer-events: none;
    }
    
    /* Apply color pulse to all paths */
    g > path {
      animation: colorPulse 3s ease-in-out infinite;
    }
    
    /* Staggered animations */
    path:nth-child(1) { animation-delay: 0s; }
    path:nth-child(2) { animation-delay: 0.3s; }
    path:nth-child(3) { animation-delay: 0.6s; }
    path:nth-child(4) { animation-delay: 0.9s; }
  </style>
  
  <!-- Rotating border element -->
  <rect class="rotating-border" x="-2" y="-2" width="124" height="124" rx="62"/>
  
  <!-- Your original SVG content -->
  <g clip-path="url(#clip0_30_834)">
    <path d="M43.42 85.2108C39.205 83.0675 35.7235 79.7158 33.4154 75.5792C31.1073 71.4426 30.0762 66.7067 30.4524 61.97C30.8287 57.2333 32.5954 52.7084 35.5292 48.9671C38.4631 45.2257 42.4325 42.4358 46.9358 40.95C51.4391 39.4641 56.2742 39.3489 60.8301 40.619C65.3861 41.8891 69.4584 44.4875 72.5324 48.0857C75.6065 51.684 77.5443 56.1207 78.1011 60.8352C78.6579 65.5496 77.8085 70.3303 75.6605 74.5731C72.75 80.2462 67.7296 84.5467 61.6917 86.5389C55.6538 88.5311 49.0869 88.0538 43.42 85.2108ZM50.643 77.1049C51.1017 77.2228 51.4861 77.3135 51.8392 77.4248C56.1308 78.7778 60.22 76.9827 61.9124 73.0331C63.6047 69.0835 61.9504 64.7087 57.9628 62.6338C56.2884 61.7844 54.5951 60.962 52.9354 60.0836C52.301 59.7618 51.8212 59.1998 51.6014 58.5211C51.3817 57.8424 51.44 57.1027 51.7637 56.4647C52.0873 55.8267 52.6497 55.3426 53.3271 55.1191C54.0046 54.8955 54.7416 54.9506 55.3759 55.2724C56.731 55.9233 58.0376 56.6799 59.4116 57.2935C60.1332 57.5732 60.7854 58.0061 61.3237 58.5626C61.862 59.1191 62.2737 59.7862 62.5308 60.5183C62.7692 61.1436 63.2399 61.6509 63.8443 61.9342C64.4487 62.2174 65.1399 62.2546 65.7733 62.038C66.1038 61.9412 66.4112 61.7774 66.6765 61.5567C66.9418 61.3361 67.1593 61.0633 67.3156 60.7552C67.4718 60.4472 67.5634 60.1106 67.5848 59.7662C67.6061 59.4217 67.5567 59.0769 67.4396 58.7531C66.8627 57.3775 66.1111 56.0831 65.2034 54.9019C64.6115 54.1062 63.6882 53.5649 62.8369 52.841C63.2693 52.0964 63.6591 51.3278 64.0045 50.5391C64.1407 50.2247 64.2125 49.8864 64.2157 49.5442C64.2189 49.2021 64.1535 48.8631 64.0233 48.5474C63.8932 48.2318 63.7009 47.9459 63.458 47.7069C63.215 47.4679 62.9264 47.2806 62.6093 47.1561C61.3426 46.5866 60.0306 47.0266 59.2682 48.366C58.8566 49.0854 58.5171 49.8467 58.1363 50.5974C57.6264 50.4065 57.323 50.2891 57.0154 50.18C53.0056 48.7927 49.0727 50.2082 47.0879 53.7122C46.1179 55.3882 45.8016 57.3632 46.2004 59.2538C46.5991 61.1444 47.6845 62.8157 49.2458 63.9432C51.158 65.346 53.4135 66.2763 55.5121 67.4138C57.0624 68.2523 57.5898 69.615 56.9096 71.0377C56.2293 72.4605 54.7178 72.987 53.0861 72.2272C52.195 71.8064 51.3251 71.3339 50.4467 70.8883C48.6568 69.9804 46.8701 69.1888 45.6446 67.3625C44.6257 65.8444 42.3741 66.225 41.4797 67.753C41.1715 68.2118 41.0231 68.7596 41.058 69.3105C41.0929 69.8614 41.3091 70.3843 41.6726 70.7972C42.8704 72.2079 44.2184 73.4861 45.6557 74.9766C44.9819 76.6321 42.9531 78.9143 45.9975 80.3647C48.8069 81.6855 49.4917 78.9145 50.6265 77.0965L50.643 77.1049Z" fill="#12FF99"/>
    <path d="M67.676 37.3619C54.0321 31.8854 41.9911 33.8188 32.0818 44.8591C24.2387 53.6048 22.724 66.6088 28.2531 77.0531C34.8529 89.506 45.5644 94.2928 59.5006 92.7941C60.0165 95.5797 60.6042 98.4383 61.0448 101.321C61.2633 102.731 60.2389 103.176 59.041 103.33C53.6581 104.047 48.1899 103.606 43.0009 102.035C23.4498 96.0495 11.9043 77.3281 15.1983 57.0342C18.7491 35.181 40.7459 20.0302 62.2434 24.7137C64.9812 25.3762 67.6718 26.2184 70.2981 27.235C71.8402 27.793 72.0711 28.6872 71.3472 30.1451C70.131 32.5528 68.8984 34.9521 67.676 37.3619Z" fill="#DBFF47"/>
    <path d="M82.0127 34.7261C83.5317 31.7315 85.0486 28.7411 86.5676 25.7465C87.4218 24.0626 88.2684 23.8246 89.8513 24.7318C103.099 32.3487 110.181 49.2076 106.308 64.0398C105.713 66.1754 104.995 68.2747 104.156 70.327C103.534 71.8996 102.613 72.2038 101.146 71.4653C95.5705 68.637 89.98 65.8272 84.4273 62.9532C84.1955 62.8066 83.9971 62.6126 83.8452 62.3837C83.6933 62.1548 83.5913 61.8962 83.5456 61.6247C83.0938 55.8444 81.0032 50.3218 77.5203 45.7085C77.3708 45.4512 77.2807 45.1633 77.2566 44.866C77.2325 44.5686 77.275 44.2693 77.3809 43.99C78.8554 40.8685 80.4495 37.8077 82.0127 34.7261Z" fill="#DBFF47"/>
    <path d="M81.8771 74.196L84.5371 75.5454C88.2695 77.4386 92.0019 79.3319 95.7342 81.2251C97.6354 82.1895 97.9189 82.9904 96.7572 84.7999C92.4245 91.7383 85.5802 96.7266 77.6712 98.7103C76.2748 99.0814 75.4817 98.58 75.1991 97.1642C74.5306 93.7866 73.8966 90.4022 73.2973 87.011C73.2637 86.7914 73.2764 86.567 73.3345 86.3521C73.3925 86.1373 73.4947 85.9369 73.6344 85.7637C77.0863 82.6553 79.7837 78.796 81.5186 74.4835C81.5503 74.4109 81.6562 74.3656 81.8771 74.196Z" fill="#DBFF47"/>
  </g>
  <defs>
    <clipPath id="clip0_30_834">
      <rect width="87.1699" height="90.7769" fill="white" transform="translate(41.9081 0.401978) rotate(26.8966)"/>
    </clipPath>
  </defs>
</svg>