<svg xmlns="http://www.w3.org/2000/svg" width="132" height="132" viewBox="0 0 132 132" fill="none">
  <style>
    /* Rotating border animation */
    @keyframes rotateBorder {
      0% { transform: rotate(0deg); }
      100% { transform: rotate(360deg); }
    }
    
    /* Color pulse animation */
    @keyframes colorPulse {
      0%, 100% { 
        fill: #12FF99;
        opacity: 0.2;
      }
      50% { 
        fill: #DBFF47;
        opacity: 1;
      }
    }
     
    /* Rotating border element */
    .rotating-border {
      position: absolute;
      width: 120px;
      height: 120px;
      border: 2px dashed #DBFF47;
      border-radius: 50%;
      top: 2px;
      left: 2px;
      animation: rotateBorder 12s linear infinite;
      pointer-events: none;
    }
    
    /* Apply animations to paths */
    g > path {
      animation: colorPulse 4s ease-in-out infinite, glow 3s ease-in-out infinite;
    }
    
    /* Staggered animations */
    path:nth-child(1) { animation-delay: 0s; }
    path:nth-child(2) { animation-delay: 0.5s; }
    path:nth-child(3) { animation-delay: 1s; }
    path:nth-child(4) { animation-delay: 1.5s; }
    path:nth-child(5) { animation-delay: 2s; }
  </style>
  
  <!-- Rotating border -->
  <rect class="rotating-border" x="2" y="2" width="120" height="120" rx="60"/>
  
  <g clip-path="url(#clip0_75_704)">
    <path d="M108.908 88.964C105.887 94.6172 101.777 99.6168 96.8153 103.675C91.8537 107.733 86.1383 110.77 79.9982 112.61C73.8581 114.45 67.4146 115.057 61.0388 114.397C54.663 113.736 48.4808 111.821 42.8483 108.762C19.3741 96.1854 10.5692 66.6057 23.2583 42.9994C29.3724 31.6524 39.7429 23.1982 52.0892 19.4961C64.4356 15.7939 77.7469 17.1468 89.0959 23.2573C112.587 35.8363 121.521 65.4552 108.908 88.964ZM26.0569 44.6492C14.2447 66.6975 22.5891 94.2615 44.6056 106.021C55.2312 111.697 67.6762 112.921 79.2042 109.424C90.7322 105.927 100.399 97.9939 106.08 87.3703C117.852 65.3969 109.465 37.8103 87.4087 26.0359C76.8017 20.3835 64.3859 19.1688 52.8845 22.6582C41.3832 26.1475 31.7352 34.0561 26.0569 44.6492Z" fill="#12FF99"/>
    <path d="M47.3661 101.025C40.443 97.3278 34.7727 91.6593 31.0735 84.7373C27.3743 77.8153 25.8124 69.9511 26.5858 62.1409C27.3592 54.3306 30.433 46.9255 35.418 40.8634C40.4029 34.8013 47.0747 30.355 54.5885 28.0874C62.1022 25.8198 70.12 25.8331 77.6262 28.1254C85.1324 30.4178 91.7895 34.8863 96.7544 40.9648C101.719 47.0433 104.769 54.4585 105.516 62.2713C106.264 70.084 104.676 77.943 100.954 84.8527C95.9813 94.0925 87.548 100.984 77.5027 104.015C67.4573 107.047 56.6198 105.971 47.3661 101.025ZM63.7243 53.0716C64.722 51.1422 66.4454 49.6882 68.5152 49.0294C70.5851 48.3706 72.8318 48.5611 74.7612 49.5589C76.6906 50.5566 78.1446 52.28 78.8034 54.3498C79.4622 56.4197 79.2718 58.6664 78.274 60.5958C77.5471 62.0536 77.9703 63.2852 79.1776 63.7274C80.5681 64.2317 81.3965 63.5503 82.0193 62.3316C83.0899 60.1661 83.4877 57.7296 83.1614 55.3361C82.8352 52.9426 81.7998 50.7015 80.1887 48.9015C78.9545 47.5664 78.6877 46.4246 79.6821 44.9055C80.0144 44.3976 80.3428 43.6048 80.1715 43.1159C79.915 42.3905 79.3888 41.7918 78.7023 41.4443C77.5806 40.9998 76.6833 41.6863 76.262 42.7423C75.5238 44.6032 74.3501 45.0755 72.3274 44.7741C66.8216 43.9545 61.6631 47.1477 59.4299 52.4618C58.4743 54.8907 58.3106 57.5594 58.9621 60.0868C59.6136 62.6143 61.047 64.8714 63.0576 66.5358C64.0647 67.3401 65.2342 67.9425 66.2585 68.7259C67.1232 69.3856 67.8474 70.2115 68.3885 71.1549C68.9295 72.0984 69.2766 73.1405 69.4093 74.2199C69.542 75.2994 69.4576 76.3946 69.1611 77.441C68.8646 78.4874 68.362 79.464 67.6828 80.3134C67.0035 81.1628 66.1614 81.868 65.2059 82.3874C64.2503 82.9068 63.2006 83.23 62.1184 83.338C61.0362 83.4461 59.9432 83.3368 58.9039 83.0165C57.8645 82.6962 56.8996 82.1714 56.0659 81.473C53.1684 78.952 52.2672 75.4004 53.6642 71.973C54.4522 70.0304 54.2321 68.9137 52.9446 68.3744C51.6571 67.835 50.5961 68.434 49.8346 70.3606C47.9381 75.1811 48.7294 79.6004 52.1563 83.4581C53.1962 84.6169 53.4052 85.6194 52.5882 86.9086C52.2753 87.2831 52.0734 87.7377 52.0054 88.221C52.0428 88.915 52.1704 89.7775 52.6085 90.2289C52.8582 90.4438 53.1564 90.5947 53.4775 90.6687C53.7985 90.7427 54.1327 90.7375 54.4513 90.6535C54.7699 90.5695 55.0633 90.4093 55.3062 90.1867C55.549 89.9641 55.7341 89.6858 55.8455 89.3757C56.6406 87.431 57.8896 87.0652 59.9364 87.3554C65.4179 88.1079 70.4741 84.926 72.6913 79.6756C73.6469 77.276 73.8236 74.6365 73.1963 72.131C72.5689 69.6254 71.1693 67.3807 69.1957 65.7145C68.164 64.8549 66.9381 64.2342 65.8698 63.4092C64.325 62.235 63.257 60.5418 62.8626 58.6419C62.4683 56.742 62.7744 54.7636 63.7243 53.0716Z" fill="#DBFF47"/>
  </g>
  <defs>
    <clipPath id="clip0_75_704">
      <rect width="97.2094" height="97.2094" fill="white" transform="translate(46.1588 0.253906) rotate(28.1799)"/>
    </clipPath>
  </defs>
</svg>