<svg xmlns="http://www.w3.org/2000/svg" width="117" height="117" viewBox="0 0 117 117" fill="none">
  <style>
    /* Rotating border animation */
    @keyframes rotateBorder {
      0% { transform: rotate(0deg); }
      100% { transform: rotate(360deg); }
    }
    
    /* Color pulse animation */
    @keyframes colorPulse {
      0%, 100% { 
        fill: #12FF99;
        opacity: 0.2;
      }
      50% { 
        fill: #DBFF47;
        opacity: 1;
      }
    }
     
    /* Rotating border element */
    .rotating-border {
      position: absolute;
      width: 120px;
      height: 120px;
      border: 2px dashed #DBFF47;
      border-radius: 50%;
      top: 2px;
      left: 2px;
      animation: rotateBorder 12s linear infinite;
      pointer-events: none;
    }
    
    /* Apply animations to paths */
    g > path {
      animation: colorPulse 4s ease-in-out infinite, glow 3s ease-in-out infinite;
    }
    
    /* Staggered animations */
    path:nth-child(1) { animation-delay: 0s; }
    path:nth-child(2) { animation-delay: 0.5s; }
    path:nth-child(3) { animation-delay: 1s; }
    path:nth-child(4) { animation-delay: 1.5s; }
    path:nth-child(5) { animation-delay: 2s; }
  </style>
  
  <!-- Rotating border -->
  <rect class="rotating-border" x="2" y="2" width="120" height="120" rx="60"/>
  
  <g clip-path="url(#clip0_80_543)">
    <path d="M48.7377 45.798L18.4447 69.0145C16.3246 70.6393 15.3081 70.508 13.6905 68.4045C13.0086 67.5147 12.3561 66.5914 11.6394 65.7283C10.6294 64.5328 10.6488 63.3704 11.4153 62.0381C17.4339 51.6548 23.4418 41.2575 29.4391 30.8463C30.3226 29.314 31.1179 27.717 32.1249 26.2667C32.6202 25.5285 33.3443 24.9735 34.1859 24.6871C47.5657 21.0533 60.9675 17.5129 74.3645 13.9376C74.941 13.736 75.5688 13.7361 76.1452 13.9377C76.7217 14.1393 77.2126 14.5306 77.5378 15.0475C78.3126 16.1088 79.1174 17.1085 79.9058 18.1373C81.2057 19.8333 81.0353 21.0508 79.3566 22.3373C71.0824 28.6786 62.8059 35.0217 54.5272 41.3665L48.7377 45.798ZM44.308 40.0181C48.0153 37.1769 51.7226 34.3357 55.4298 31.4944C56.8896 30.3757 57.2554 28.8374 56.3631 27.6731C55.4707 26.5088 53.9079 26.4708 52.4412 27.5949C45.0267 33.2773 37.6121 38.9598 30.1976 44.6423C29.7631 44.9752 29.1897 45.4147 29.12 45.8709C28.9946 46.7007 28.9107 47.8078 29.3563 48.3821C29.802 48.9563 30.8911 49.1753 31.7256 49.2419C32.2235 49.2797 32.8184 48.7962 33.3076 48.4267C36.9695 45.6534 40.6343 42.8336 44.3045 40.0208L44.308 40.0181Z" fill="#12FF99"/>
    <path d="M83.5033 91.1391L53.1199 114.425C51.0937 115.978 50.042 115.829 48.4643 113.778C47.6492 112.714 46.8342 111.651 46.0164 110.584C45.5181 109.925 45.2895 109.101 45.3773 108.279C45.4651 107.458 45.8626 106.7 46.4889 106.161C46.7287 105.978 46.972 105.791 47.2118 105.607L107.071 59.7311C109.094 58.1808 110.725 58.3933 112.279 60.4073C113.078 61.4499 113.859 62.4683 114.647 63.497C115.947 65.1931 115.774 66.407 114.095 67.6936C105.202 74.509 96.3108 81.3235 87.4203 88.1372L83.5033 91.1391Z" fill="#12FF99"/>
    <path d="M34.6502 62.9061L49.833 82.7168L40.2857 90.0339L25.1028 70.2231L34.6502 62.9061Z" fill="#12FF99"/>
    <path d="M78.4629 29.3059L93.6457 49.1166L84.0671 56.4577L68.8842 36.647L78.4629 29.3059Z" fill="#12FF99"/>
    <path d="M65.4202 55.6374C66.5895 57.1632 66.5864 58.4621 65.6269 59.3409C64.5948 60.3194 63.2695 60.3034 62.1337 59.3037C61.8414 58.9918 61.5174 58.7113 61.1668 58.4668C60.6647 58.2041 60.0855 58.1282 59.5327 58.2528C58.9798 58.3774 58.4892 58.6944 58.1483 59.1472C57.8074 59.5999 57.6384 60.159 57.6715 60.7248C57.7046 61.2906 57.9376 61.8262 58.329 62.2361C58.6966 62.6672 59.2133 62.9438 59.7758 63.0107C60.3384 63.0775 60.9055 62.9298 61.364 62.5969C64.0367 60.8078 66.8021 60.4208 69.669 62.0524C71.2474 62.9524 72.4263 64.417 72.9683 66.1513C73.5102 67.8856 73.3751 69.7608 72.59 71.3994C72.4099 71.6832 72.3278 72.0182 72.3563 72.3531C72.3848 72.688 72.5223 73.0043 72.7477 73.2536C73.6693 74.4562 73.486 75.8656 72.4139 76.6982C72.1606 76.9027 71.8673 77.0519 71.5529 77.1362C71.2385 77.2205 70.91 77.2382 70.5884 77.188C70.2667 77.1378 69.9592 77.0209 69.6854 76.8448C69.4117 76.6687 69.1778 76.4373 68.9988 76.1654C68.4501 75.4494 67.9416 75.3978 67.1292 75.5184C65.8659 75.7597 64.5603 75.6431 63.3597 75.1819C62.1592 74.7207 61.1113 73.9332 60.3345 72.9082C59.4258 71.773 59.5246 70.4118 60.4741 69.491C61.4235 68.5703 62.816 68.6451 63.889 69.5772C64.0516 69.7174 64.1866 69.9008 64.3396 70.0428C64.7563 70.467 65.3165 70.72 65.9102 70.7521C66.5039 70.7842 67.0882 70.5931 67.5482 70.2163C68.0082 69.8396 68.3107 69.3045 68.3962 68.7161C68.4817 68.1277 68.3441 67.5286 68.0104 67.0365C67.6955 66.5058 67.1863 66.1187 66.5908 65.9572C65.9953 65.7956 65.3603 65.8724 64.8204 66.1711C64.0294 66.5787 63.2773 67.1882 62.4305 67.451C59.5497 68.3568 56.9131 67.8176 54.8108 65.6C52.6341 63.307 52.1661 60.5872 53.3856 57.672C53.7553 56.837 53.7982 56.2524 53.185 55.481C52.9942 55.2312 52.8548 54.9461 52.7748 54.6422C52.6947 54.3383 52.6756 54.0215 52.7185 53.7101C52.7614 53.3988 52.8655 53.099 53.0248 52.828C53.1841 52.5571 53.3955 52.3204 53.6467 52.1315C54.1408 51.7671 54.7575 51.6096 55.3658 51.6924C55.9741 51.7752 56.5262 52.0917 56.905 52.5749C57.5146 53.4207 58.1206 53.4915 59.0817 53.3562C60.2453 53.1541 61.4415 53.2581 62.5528 53.6581C63.6641 54.058 64.6522 54.7401 65.4202 55.6374Z" fill="#DBFF47"/>
    <path d="M59.8592 90.3422L45.0533 101.689C44.0091 100.327 42.9651 99.0582 42.0167 97.7272C41.8362 97.4769 41.7073 97.1932 41.6376 96.8926C41.5678 96.592 41.5586 96.2805 41.6104 95.9763C41.6623 95.6721 41.7742 95.3813 41.9396 95.1208C42.105 94.8603 42.3206 94.6353 42.5738 94.4589C46.1773 91.6311 49.8139 88.844 53.4836 86.0977C53.7281 85.8948 54.0109 85.7433 54.3152 85.6521C54.6195 85.5609 54.9391 85.532 55.2548 85.567C55.5706 85.6021 55.876 85.7004 56.1529 85.8561C56.4298 86.0118 56.6725 86.2217 56.8665 86.4733C57.9002 87.6781 58.823 88.9902 59.8592 90.3422Z" fill="#12FF99"/>
    <path d="M103.666 56.7852L88.8916 68.1084C87.8075 66.6938 86.6877 65.3839 85.755 63.9581C85.0768 62.9221 85.3834 61.6665 86.4424 60.8383C90.0191 58.0475 93.618 55.2783 97.2479 52.557C98.4818 51.6114 99.8411 51.8661 100.801 53.0612C101.761 54.2564 102.689 55.5096 103.666 56.7852Z" fill="#12FF99"/>
  </g>
  <defs>
    <clipPath id="clip0_80_543">
      <rect width="83.1375" height="82.958" fill="white" transform="translate(0.0258942 50.5967) rotate(-37.4664)"/>
    </clipPath>
  </defs>
</svg>