<svg xmlns="http://www.w3.org/2000/svg" width="124" height="125" viewBox="0 0 124 125" fill="none">
  <style>
    /* Rotating border animation */
    @keyframes rotateBorder {
      0% { transform: rotate(0deg); }
      100% { transform: rotate(360deg); }
    }
    
    /* Color pulse animation */
    @keyframes colorPulse {
      0%, 100% { 
        fill: #12FF99;
        opacity: 0.3;
      }
      50% { 
        fill: #DBFF47;
        opacity: 1;
      }
    }
    
    /* Glow effect */
    @keyframes glow {
      0%, 100% { filter: drop-shadow(0 0 2px rgba(219, 255, 71, 0.1)); }
      50% { filter: drop-shadow(0 0 8px rgba(219, 255, 71, 0.4)); }
    }
    
    /* Rotating border element */
    .rotating-border {
      position: absolute;
      width: 120px;
      height: 120px;
      border: 2px dashed #DBFF47;
      border-radius: 50%;
      top: 2px;
      left: 2px;
      animation: rotateBorder 12s linear infinite;
      pointer-events: none;
    }
    
    /* Apply animations to paths */
    g > path {
      animation: colorPulse 4s ease-in-out infinite, glow 3s ease-in-out infinite;
    }
    
    /* Staggered animations */
    path:nth-child(1) { animation-delay: 0s; }
    path:nth-child(2) { animation-delay: 0.5s; }
    path:nth-child(3) { animation-delay: 1s; }
    path:nth-child(4) { animation-delay: 1.5s;  }
  </style>
  
  <!-- Rotating border -->
  <rect class="rotating-border" x="2" y="2" width="120" height="120" rx="60"/>
  <g clip-path="url(#clip0_33_2558)">
    <path d="M65.9665 54.1375C65.4284 56.2946 64.9533 58.4097 64.3523 60.5143C64.1389 60.9315 63.826 61.2897 63.4411 61.5569C63.237 61.6984 63.0136 61.81 62.7778 61.8883C59.4195 63.5657 59.2107 66.172 62.2358 68.5425C62.4984 68.7209 62.6817 68.9939 62.7475 69.3045C62.6558 73.1217 62.522 76.9389 62.4114 80.4874C62.4009 80.4664 62.1682 80.0844 61.9375 79.7381C61.258 78.7137 60.3473 78.4342 59.237 78.9626C57.138 80.011 55.0496 81.007 52.9863 82.0848C51.857 82.6803 51.5251 83.6434 52.0576 84.8461C52.1016 84.9343 52.1457 85.0224 52.1897 85.1106C53.7832 88.5108 54.2238 88.6579 57.557 86.993C58.7534 86.3954 59.9771 85.8419 61.1462 85.2002C61.9627 84.7347 62.7311 84.1096 63.6064 83.4993C64.9681 87.5262 67.3582 91.1275 70.5399 93.9465C69.9627 94.2821 69.5303 94.561 69.0685 94.7917C60.5971 99.0231 52.1271 103.254 43.6585 107.484C38.2264 110.197 33.6879 108.64 30.9578 103.185L4.2315 49.6783C1.56013 44.3302 3.10231 39.7518 8.43367 37.0888C22.312 30.1567 36.2365 23.3064 50.0477 16.2399C54.4807 13.9732 60.2408 14.9933 62.5869 20.4672C62.6608 20.652 62.7498 20.8303 62.8532 21.0004C63.7864 22.4592 64.2203 23.7374 62.6395 25.2352C61.8753 25.9525 61.8244 27.3942 61.3832 28.4853C61.2373 28.9476 60.9447 29.3497 60.5497 29.6307C59.5841 30.113 58.5368 30.4211 57.3258 30.8739C57.0469 30.3155 56.7219 29.6649 56.3969 29.0142C55.772 27.8471 54.8467 27.5593 53.6545 28.1338L16.6707 46.6069C14.1982 47.842 13.9965 48.4672 15.2504 50.9881L17.1774 54.846C18.7877 58.07 19.092 58.175 22.2488 56.5982C32.9325 51.2618 43.6205 45.9232 54.3084 40.5846C55.362 40.0583 56.0085 39.8718 56.8852 41.018C57.5585 41.8934 58.7754 42.3975 59.8245 42.9121C60.5918 43.2087 61.3868 43.4284 62.1976 43.5678C61.834 44.9401 61.607 46.0501 61.2288 47.0992C61.0201 47.5204 60.6754 47.859 60.2505 48.06C58.5923 48.9407 56.8921 49.7374 55.2256 50.6014C53.9389 51.2703 53.6741 52.0844 54.2339 53.4151C54.2779 53.5032 54.322 53.5914 54.366 53.6796C55.9176 57.0274 56.2932 57.1597 59.6011 55.5074C60.645 55.0464 61.6625 54.5276 62.6488 53.9536C63.7782 53.1692 64.8085 53.2263 65.9665 54.1375ZM41.9478 87.5827C40.9739 88.0691 40 88.5556 39.0093 89.0505C37.4455 89.8788 37.1787 90.7097 37.9419 92.3321C38.1851 92.8191 38.4284 93.3061 38.6716 93.793C39.4433 95.2015 40.4169 95.5439 41.8736 94.8163C43.4792 94.051 45.0598 93.2248 46.655 92.428C49.2997 91.107 49.493 90.4859 48.1531 87.814C48.063 87.6334 47.9749 87.4571 47.8868 87.2808C47.0858 85.8031 46.2171 85.4922 44.7164 86.1841C43.797 86.6328 42.8798 87.1172 41.9478 87.5827ZM38.5214 81.206C39.4911 80.7216 40.465 80.2351 41.46 79.7382C43.0069 78.9288 43.2822 78.0727 42.5232 76.4586C42.303 76.0178 42.0807 75.5728 41.8605 75.132C41.049 73.6124 40.13 73.2741 38.5747 74.0038C37.139 74.6789 35.7411 75.4192 34.3264 76.1258C30.9681 77.8033 30.7957 78.4139 32.6663 81.6758C33.4212 82.9981 34.2563 83.2944 35.6249 82.6633C36.5862 82.2041 37.5475 81.6924 38.5214 81.206ZM52.7692 74.0893C53.7431 73.6028 54.717 73.1164 55.7077 72.6215C57.2693 71.81 57.5446 70.9854 56.8024 69.3524C56.5591 68.8655 56.3411 68.3659 56.0727 67.8915C55.259 66.4621 54.3715 66.1659 52.8623 66.8725C51.4728 67.5245 50.1169 68.2438 48.7442 68.9295C45.2095 70.695 45.0456 71.3014 46.9854 74.6599C47.6355 75.7828 48.5482 76.1399 49.7299 75.6074C50.7436 75.1377 51.747 74.5946 52.7671 74.0851L52.7692 74.0893ZM32.4658 69.0194C33.3935 68.556 34.3255 68.0905 35.2532 67.6271C36.8946 66.8072 37.1824 65.9134 36.4066 64.2657C36.1403 63.7326 35.8992 63.1869 35.6098 62.6705C34.9367 61.5013 34.0135 61.1337 32.752 61.7795C31.0728 62.6183 29.3937 63.457 27.7145 64.2957C24.9606 65.6713 24.8388 66.0574 26.25 68.8511C26.3842 69.1198 26.5163 69.3842 26.6484 69.6487C27.309 70.7507 28.2322 71.0973 29.4139 70.5333C30.4235 70.0447 31.4352 69.4974 32.4511 68.99L32.4658 69.0194ZM43.9542 56.1789L41.9644 57.1728C39.1853 58.5609 39.0781 58.9029 40.4893 61.7176C40.5774 61.8939 40.6676 62.0745 40.7556 62.2508C41.521 63.6781 42.4589 64.0226 43.924 63.2908C45.748 62.406 47.551 61.4792 49.3813 60.5649C51.2116 59.6507 51.491 58.8345 50.6209 57.0084C50.3608 56.421 50.0581 55.8535 49.715 55.3103C49.0879 54.3594 48.2297 54.0485 47.1593 54.5832L43.9542 56.1789Z" fill="#12FF99"/>
    <path d="M100.872 94.364C94.7621 97.0539 88.573 98.0944 82.0892 96.5388C71.7234 94.0479 65.1961 85.7371 65.3243 75.0829C65.4068 68.1913 67.0988 61.5502 68.8999 54.9384C69.1074 54.5225 69.4587 54.1961 69.8887 54.0196C75.6315 51.1302 81.3826 48.2575 87.1422 45.4016C87.6254 45.1348 88.1926 45.0637 88.7267 45.2029C94.1294 47.7758 99.7273 50.0361 104.838 53.1063C119.22 61.7581 118.672 78.8483 107.95 89.003C105.817 91.0545 103.242 92.598 100.872 94.364ZM95.7845 80.3877C96.3954 79.7941 96.9853 79.2634 97.5123 78.6907C99.6685 76.2762 99.9739 73.4118 98.2415 70.9306C96.3853 68.2648 93.6721 67.8419 90.6878 68.4093C89.1368 68.6962 87.6152 69.1783 86.058 69.4211C84.7694 69.6241 83.5524 69.3298 82.8982 68.0201C82.2439 66.7103 82.6389 65.6004 83.4515 64.5598C85.1186 62.4263 87.8574 62.0076 90.2218 63.5699C91.2477 64.2482 92.1941 64.3682 92.9311 63.2919C93.6681 62.2157 93.0997 61.4243 92.1934 60.765C91.4141 60.1479 90.5175 59.6956 89.558 59.4355C88.5985 59.1753 87.5963 59.1128 86.612 59.2518C85.7179 59.3731 85.0401 59.4127 84.5977 58.3696C84.5233 58.1546 84.4023 57.9588 84.2433 57.7961C84.0844 57.6334 83.8915 57.5078 83.6784 57.4284C83.4653 57.3489 83.2373 57.3175 83.0106 57.3364C82.7839 57.3552 82.5643 57.424 82.3673 57.5377C81.4081 57.9696 81.0489 58.8676 81.5501 59.766C82.1456 60.8323 81.7068 61.4029 80.9909 62.1434C80.0559 63.0807 79.4344 64.2847 79.2117 65.5898C78.9891 66.8948 79.1764 68.2368 79.7477 69.4311C80.9575 71.9372 83.1437 73.1427 86.2308 72.8438C87.5067 72.731 88.7346 72.2804 90.0001 72.0836C91.1563 71.8294 92.3412 71.7297 93.5236 71.787C93.9088 71.8182 94.2818 71.9369 94.6142 72.1341C94.9466 72.3313 95.2295 72.6017 95.4415 72.9248C95.6535 73.248 95.7889 73.6152 95.8375 73.9986C95.886 74.382 95.8463 74.7714 95.7216 75.1372C94.625 77.9509 89.5749 80.3579 86.9382 77.5994C86.1054 76.7198 85.094 76.4906 84.2395 77.4472C83.385 78.4038 83.8526 79.4029 84.6728 80.1734C85.4927 80.9738 86.4899 81.5694 87.5833 81.9119C88.6767 82.2544 89.8355 82.334 90.9655 82.1444C92.0421 81.9895 92.8018 81.9772 93.3218 83.1652C93.6992 84.0258 94.5973 84.2066 95.4872 83.7411C95.6817 83.656 95.8571 83.5327 96.0032 83.3787C96.1493 83.2247 96.2631 83.043 96.3379 82.8444C96.4127 82.6457 96.4469 82.4341 96.4387 82.222C96.4304 82.0099 96.3798 81.8015 96.2898 81.6093C96.1619 81.1853 95.9648 80.8012 95.7761 80.371L95.7845 80.3877Z" fill="#DBFF47"/>
    <path d="M72.489 37.6983C70.3187 38.7823 68.1735 39.9273 65.9613 40.9169C65.2545 41.1793 64.4863 41.2293 63.7515 41.0608C62.6841 40.8126 61.6391 40.4767 60.6271 40.0564C59.7453 39.7706 58.9942 39.1799 58.5084 38.3904C58.0227 37.6009 57.834 36.6642 57.9764 35.7482C58.1187 34.8322 58.5828 33.9969 59.2852 33.392C59.9877 32.7872 60.8826 32.4523 61.8096 32.4476C64.0866 32.3226 64.5191 31.8129 64.308 29.5002C64.222 28.7075 64.3771 27.9072 64.7528 27.2039C65.1286 26.5007 65.7077 25.927 66.4145 25.5579C67.1517 25.1806 67.9895 25.0466 68.8076 25.1751C69.6257 25.3036 70.382 25.6881 70.968 26.2732C72.5434 27.7365 73.3598 27.7012 74.7371 26.0271C76.0493 24.4537 77.9676 23.9991 79.6586 24.8749C80.4845 25.2943 81.1327 25.9959 81.4854 26.8524C81.8382 27.7089 81.8721 28.6635 81.5811 29.5429C81.282 30.694 80.9029 31.8228 80.4465 32.921C80.2042 33.4889 79.7892 33.966 79.2603 34.2846C77.0333 35.4756 74.7559 36.566 72.489 37.6983Z" fill="#DBFF47"/>
    <path d="M73.8164 40.3555C76.2092 39.1603 78.6021 37.9651 80.9991 36.7678C83.2492 35.6439 85.4796 36.2869 86.5134 38.2411C87.5472 40.1952 86.6649 42.5033 84.3728 43.6587C79.6236 46.0519 74.8785 48.422 70.1377 50.769C67.9002 51.8866 65.6466 51.2289 64.6191 49.2768C63.5916 47.3248 64.4446 45.0524 66.7618 43.8739C69.0791 42.6955 71.4698 41.5276 73.8164 40.3555Z" fill="#DBFF47"/>
  </g>
  <defs>
    <clipPath id="clip0_33_2558">
      <rect width="92.2399" height="92.62" fill="white" transform="translate(0 41.2175) rotate(-26.5419)"/>
    </clipPath>
  </defs>
</svg>