<svg xmlns="http://www.w3.org/2000/svg" width="117" height="117" viewBox="0 0 117 117" fill="none">
  <style>
    /* Rotating border animation */
    @keyframes rotateBorder {
      0% { transform: rotate(0deg); }
      100% { transform: rotate(360deg); }
    }
    
    /* Color fade animation */
    @keyframes colorPulse {
      0%, 100% { 
        fill: #12FF99;
        opacity: 0.2;
      }
      50% { 
        fill: #DBFF47;
        opacity: 1;
      }
    }
    
    /* Apply border rotation */
    .rotating-border {
      position: absolute;
      width: 124px;
      height: 124px;
      border: 2px dashed #DBFF47;
      border-radius: 50%;
      top: -4px;
      left: -4px;
      animation: rotateBorder 8s linear infinite;
      pointer-events: none;
    }
    
    /* Apply color pulse to all paths */
    g > path {
      animation: colorPulse 3s ease-in-out infinite;
    }
    
    /* Staggered animations */
    path:nth-child(1) { animation-delay: 0s; }
    path:nth-child(2) { animation-delay: 0.3s; }
    path:nth-child(3) { animation-delay: 0.6s; }
    path:nth-child(4) { animation-delay: 0.9s; }
    path:nth-child(5) { animation-delay: 1.1s; }
  </style>
  
  <!-- Rotating border element -->
  <rect class="rotating-border" x="-2" y="-2" width="124" height="124" rx="62"/>
  
  <g clip-path="url(#clip0_102_1135)">
    <path d="M91.4918 87.2835L77.9545 112.985C76.6572 115.448 75.6368 115.758 73.1504 114.448C70.0007 112.789 66.8511 111.13 63.7014 109.471C61.5758 108.352 61.1699 107.147 62.2649 105.068C71.4001 87.7242 80.5353 70.3804 89.6705 53.0366C90.7594 50.9692 91.9397 50.6097 93.9627 51.6703C97.2778 53.4164 100.596 55.1639 103.916 56.9128C105.972 57.9956 106.322 59.1267 105.229 61.2019C100.655 69.8985 96.0762 78.5924 91.4918 87.2835Z" fill="#12FF99"/>
    <path d="M45.1213 40.8047C45.7186 39.3089 46.7787 38.0434 48.1466 37.1931C49.5144 36.3428 51.1184 35.9522 52.7241 36.0785C54.2753 36.186 55.7507 36.7905 56.9313 37.8024C58.112 38.8143 58.9351 40.1798 59.2788 41.6963C59.5141 42.8112 59.9895 43.235 61.0448 43.4985C63.4793 44.1069 65.8585 44.924 68.291 45.5363C68.5851 45.5862 68.8867 45.5714 69.1745 45.4928C69.4624 45.4142 69.7296 45.2737 69.9576 45.0813C70.6778 44.3218 71.5477 43.72 72.5123 43.3138C73.4769 42.9077 74.5153 42.7061 75.5618 42.7218C76.6083 42.7375 77.6402 42.9701 78.5922 43.4049C79.5443 43.8397 80.3957 44.4674 81.0928 45.2481C81.3148 45.4492 81.578 45.5995 81.864 45.6885C82.15 45.7776 82.4519 45.8032 82.7488 45.7635C87.2678 44.7099 91.7792 43.5483 96.302 42.4967C97.1139 42.3099 97.2913 41.8979 97.4614 41.1799C97.8517 39.6169 98.7361 38.2218 99.9832 37.202C101.23 36.1822 102.773 35.5924 104.383 35.5202C105.992 35.448 107.582 35.8973 108.915 36.8014C110.248 37.7054 111.254 39.0157 111.783 40.5374C112.312 42.0533 112.339 43.6992 111.86 45.2317C111.381 46.7642 110.422 48.1019 109.124 49.047C106.411 51.0174 102.483 51.2324 100.202 48.8466C98.4921 47.0593 97.0427 47.4405 95.2049 47.9193C91.486 48.884 87.7507 49.7855 84.0118 50.6752C83.6696 50.716 83.3511 50.8708 83.1076 51.1147C82.8641 51.3585 82.7098 51.6773 82.6695 52.0195C82.2653 53.6477 81.3236 55.0919 79.9968 56.1184C78.67 57.145 77.0357 57.6939 75.3582 57.6764C73.6807 57.6588 72.0582 57.0758 70.7532 56.0217C69.4481 54.9676 68.5369 53.5041 68.1669 51.8679C67.9793 51.001 67.6374 50.5682 66.8125 50.3468C64.2074 49.6485 61.6389 48.8804 59.0133 48.2209C58.7575 48.1793 58.4957 48.1938 58.246 48.2633C57.9964 48.3329 57.7648 48.4558 57.5674 48.6237C53.9585 52.1734 48.8691 51.8266 45.8364 47.7913C45.6529 47.5855 45.4268 47.4222 45.1737 47.3129C44.9206 47.2036 44.6467 47.1508 44.3711 47.1583C41.2266 47.484 38.0726 47.9782 34.9156 48.337C34.5241 48.3365 34.1432 48.4644 33.8315 48.7012C33.5197 48.938 33.2942 49.2705 33.1896 49.6477C32.5089 51.4363 31.1664 52.8945 29.44 53.7203C27.7137 54.5461 25.7358 54.6762 23.9161 54.0836C22.7907 53.7051 21.7714 53.0645 20.9422 52.2147C20.113 51.3649 19.4976 50.3302 19.1468 49.1958C18.796 48.0615 18.7198 46.86 18.9245 45.6904C19.1292 44.5208 19.609 43.4167 20.3243 42.4689C21.0395 41.5212 21.9698 40.757 23.0383 40.2394C24.1069 39.7217 25.2832 39.4654 26.4703 39.4917C27.6573 39.5179 28.8212 39.8259 29.8658 40.3903C30.9105 40.9547 31.8061 41.7592 32.4787 42.7377C32.6591 42.9464 32.8835 43.1125 33.1358 43.224C33.3881 43.3355 33.662 43.3896 33.9378 43.3823C37.0019 43.0588 40.0407 42.6328 43.1104 42.2329C44.1299 42.0564 45.2009 42.0457 45.1213 40.8047Z" fill="#DBFF47"/>
    <path d="M51.2782 77.3749C54.2856 71.6652 57.293 65.9555 60.3004 60.2457C61.4711 58.0231 62.5407 57.7046 64.7788 58.8834C68.0526 60.6078 71.3264 62.3321 74.6001 64.0564C76.4659 65.0391 76.8592 66.2868 75.8804 68.1546C69.8002 79.6982 63.7194 91.2431 57.6379 102.789C56.6164 104.729 55.432 105.096 53.4344 104.044C50.1192 102.298 46.8027 100.551 43.485 98.8032C41.4913 97.7531 41.1621 96.6283 42.2183 94.6229C45.2214 88.8713 48.2413 83.1219 51.2782 77.3749Z" fill="#12FF99"/>
    <path d="M45.6661 77.1745C43.0142 82.2093 40.3623 87.2441 37.7105 92.2789C36.6726 94.2494 35.5046 94.5855 33.512 93.5707C30.1503 91.8 26.7886 90.0294 23.4269 88.2587C21.6194 87.3067 21.1793 86.0443 22.1132 84.2618C27.4438 74.0974 32.7918 63.9437 38.1573 53.8009C39.0889 52.0321 40.2467 51.7154 42.0643 52.6578C45.5131 54.4513 48.9537 56.2635 52.3861 58.0944C54.2324 59.0669 54.5608 60.2309 53.6003 62.0638C50.9679 67.1055 48.3232 72.1424 45.6661 77.1745Z" fill="#12FF99"/>
    <path d="M6.58679 65.103C8.04553 62.3335 9.50428 59.564 10.961 56.7983C12.0254 54.7774 13.2715 54.3684 15.2559 55.3987C18.5766 57.128 21.8905 58.8734 25.1975 60.6351C27.1369 61.6566 27.4795 62.8876 26.4519 64.8386C23.4922 70.4579 20.5318 76.0784 17.5707 81.7002C16.5247 83.6861 15.392 84.0211 13.3788 82.9607C10.0637 81.2146 6.7498 79.4691 3.43723 77.7244C1.46288 76.6845 1.10348 75.5042 2.13768 73.5218C3.61869 70.7195 5.10762 67.9113 6.58679 65.103Z" fill="#12FF99"/>
  </g>
  <defs>
    <clipPath id="clip0_102_1135">
      <rect width="85.4626" height="85.4494" fill="white" transform="translate(40.5099 0.688477) rotate(27.7763)"/>
    </clipPath>
  </defs>
</svg>