<svg xmlns="http://www.w3.org/2000/svg" width="74" height="74" viewBox="0 0 74 74" class="sparkle-icon">
  <style>
    .sparkle-group {
      animation: rotate 12s linear infinite;
      transform-origin: center;
    }
    
    .sparkle-path {
      stroke: #DBFF47;
      stroke-width: 0.5;
      fill: #DBFF47;
      stroke-dasharray: 1000;
      stroke-dashoffset: 1000;
      animation: 
        draw 4s ease-in-out infinite,
        pulse 3s ease-in-out infinite;
    }
    
    .sparkle-icon:hover .sparkle-group {
      animation: rotate 6s linear infinite;
    }
    
    .sparkle-icon:hover .sparkle-path {
      animation: 
        draw 2s ease-in-out infinite,
        pulse 1.5s ease-in-out infinite;
      stroke-width: 1;
    }
    
    @keyframes rotate {
      0% { transform: rotate(0deg); }
      100% { transform: rotate(360deg); }
    }
    
    @keyframes draw {
      0% { stroke-dashoffset: 1000; }
      50% { stroke-dashoffset: 0; }
      100% { stroke-dashoffset: 0; }
    }
    
    @keyframes pulse {
      0%, 100% { opacity: 0.2; fill: #14ff99; }
      50% { opacity: 1; fill: #DBFF47; }
    }
  </style>
  
  <g class="sparkle-group" clip-path="url(#clip0_143_271)">
    <path class="sparkle-path" d="M68.2488 44.8463C69.5887 46.1524 70.0618 48.0694 69.4837 49.849C68.9054 51.6286 67.3959 52.9012 65.5442 53.1702L49.3523 55.523C49.0345 55.5691 48.7598 55.7687 48.6175 56.0569L41.3764 70.729C40.5484 72.407 38.8715 73.4493 37.0003 73.4493C35.129 73.4493 33.4522 72.407 32.6241 70.729L25.383 56.0567C25.2406 55.7687 24.966 55.5691 24.648 55.5228L8.4565 53.1702C6.60476 52.9012 5.09542 51.6286 4.51701 49.849C3.9386 48.0694 4.41179 46.1524 5.75189 44.8463L17.4683 33.4256C17.6983 33.2013 17.8033 32.8783 17.749 32.5616L14.9831 16.4354C14.6669 14.591 15.4106 12.7623 16.9244 11.6624C18.4383 10.5622 20.4079 10.4201 22.064 11.2906L36.5461 18.9044C36.8306 19.054 37.1701 19.054 37.4547 18.9044L51.937 11.2906C52.6573 10.912 53.4368 10.7248 54.2125 10.7249C55.2199 10.7249 56.2209 11.0406 57.0761 11.6625C58.5899 12.7625 59.3338 14.5914 59.0174 16.4355L56.2515 32.5617C56.1973 32.8784 56.3023 33.2014 56.5322 33.4257L68.2488 44.8463ZM52.404 31.9015L55.1699 15.775C55.2624 15.2353 54.9292 14.9276 54.7817 14.8205C54.6339 14.7136 54.2382 14.4914 53.7537 14.7464L39.2714 22.3601C38.5605 22.7338 37.7806 22.9208 37.0005 22.9208C36.2205 22.9208 35.4405 22.7338 34.7297 22.3603L20.2475 14.7467C19.7627 14.4919 19.3672 14.7137 19.2196 14.8208C19.072 14.9279 18.7387 15.2356 18.8314 15.7753L21.5973 31.9015C21.8689 33.4849 21.3443 35.0996 20.1937 36.221L8.47731 47.6417C8.0852 48.0241 8.17394 48.4688 8.23045 48.6423C8.28667 48.8159 8.47644 49.2279 9.01829 49.3066L25.2097 51.6594C26.7994 51.8903 28.1732 52.8882 28.8843 54.329L36.1254 69.0012C36.3678 69.4922 36.8182 69.5453 37.0007 69.5453C37.1829 69.5453 37.6333 69.4924 37.8758 69.0012V69.0011L45.117 54.3289C45.8279 52.888 47.2016 51.8902 48.7913 51.6592L64.983 49.3064C65.5248 49.2278 65.7144 48.8157 65.7708 48.6421C65.8272 48.4686 65.916 48.0237 65.5238 47.6416L53.8074 36.2208C52.6569 35.0996 52.1324 33.4849 52.404 31.9015Z"/>
    <path class="sparkle-path" d="M59.8045 70.73C58.9321 71.3636 57.7115 71.1702 57.0779 70.2981L55.0057 67.4462C54.3721 66.5741 54.5654 65.3533 55.4376 64.7196C55.7843 64.468 56.1857 64.3468 56.5835 64.3468C57.1872 64.3468 57.7823 64.6258 58.1642 65.1514L60.2363 68.0033C60.87 68.8755 60.6767 70.0964 59.8045 70.73Z"/>
    <path class="sparkle-path" d="M18.9856 67.4578L16.9134 70.3097C16.2799 71.1815 15.0592 71.3749 14.1868 70.7415C13.3147 70.1079 13.1213 68.8871 13.755 68.015L15.8271 65.1631C16.2091 64.6371 16.8043 64.3582 17.4081 64.3582C17.806 64.3582 18.2075 64.4794 18.5538 64.7312C19.4259 65.3647 19.6193 66.5855 18.9856 67.4578Z"/>
    <path class="sparkle-path" d="M7.16178 29.6536C6.82864 30.6788 5.72745 31.24 4.70201 30.9069L1.34931 29.8174C0.323865 29.4842 -0.23706 28.3828 0.0960841 27.3576C0.364045 26.5325 1.12934 26.0081 1.95215 26.0081C2.15204 26.0081 2.3554 26.0392 2.55586 26.1044L5.90855 27.1938C6.93386 27.527 7.49493 28.6282 7.16178 29.6536Z"/>
    <path class="sparkle-path" d="M37.0006 7.98015C35.9226 7.98015 35.0486 7.10617 35.0486 6.02811V2.50271C35.0486 1.42465 35.9226 0.550665 37.0006 0.550665C38.0787 0.550665 38.9527 1.42465 38.9527 2.50271V6.02811C38.9527 7.10632 38.0788 7.98015 37.0006 7.98015Z"/>
    <path class="sparkle-path" d="M72.6507 29.8146L69.2981 30.9041C68.273 31.237 67.1714 30.6762 66.8383 29.6507C66.5051 28.6253 67.0661 27.5241 68.0915 27.1909L71.4442 26.1015C71.6447 26.0364 71.8479 26.0055 72.0478 26.0055C72.8707 26.0055 73.636 26.53 73.904 27.355C74.2371 28.3803 73.676 29.4815 72.6507 29.8146Z"/>
  </g>
  <defs>
    <clipPath id="clip0_143_271">
      <rect width="74" height="74" fill="white" transform="matrix(1 0 0 -1 0 74)"/>
    </clipPath>
  </defs>
  
  <script>
    document.addEventListener('DOMContentLoaded', function() {
      const paths = document.querySelectorAll('.sparkle-path');
      paths.forEach(path => {
        const pathLength = Math.ceil(path.getTotalLength());
        path.style.strokeDasharray = pathLength;
        path.style.strokeDashoffset = pathLength;
      });
    });
  </script>
</svg>