<svg xmlns="http://www.w3.org/2000/svg" width="127" height="136" viewBox="0 0 127 136" fill="none">
  <style>
    /* Rotating border animation */
    @keyframes rotateBorder {
      0% { transform: rotate(0deg); }
      100% { transform: rotate(360deg); }
    }
    
    /* Color fade animation */
    @keyframes colorPulse {
      0%, 100% { 
        fill: #12FF99;
        opacity: 0.7;
      }
      50% { 
        fill: #DBFF47;
        opacity: 1;
      }
    }
    
    /* Apply border rotation */
    .rotating-border {
      position: absolute;
      width: 124px;
      height: 124px;
      border: 2px dashed #DBFF47;
      border-radius: 50%;
      top: -4px;
      left: -4px;
      animation: rotateBorder 8s linear infinite;
      pointer-events: none;
    }
    
    /* Apply color pulse to all paths */
    g > path {
      animation: colorPulse 3s ease-in-out infinite;
    }
    
    /* Staggered animations */
    path:nth-child(1) { animation-delay: 0s; }
    path:nth-child(2) { animation-delay: 0.3s; }
    path:nth-child(3) { animation-delay: 0.6s; }
    path:nth-child(4) { animation-delay: 0.9s; }
  </style>
  
  <!-- Rotating border element -->
  <rect class="rotating-border" x="-2" y="-2" width="124" height="124" rx="62"/>
  
  <g clip-path="url(#clip0_75_709)">
    <path d="M84.5465 55.3647C89.5205 53.8641 94.7302 53.2767 99.9225 53.631C101.385 53.744 103.206 54.3367 103.675 52.1295C103.976 50.7316 102.741 49.95 100.162 49.8028C93.4655 49.4248 86.9238 50.0767 80.7044 52.7118C74.1816 55.3926 68.9266 60.4374 65.9929 66.8351L61.9394 64.5846C63.4004 57.8858 62.4869 51.2667 59.6743 44.9853C58.0854 41.4326 55.9185 38.1205 53.949 34.7449C53.7046 34.2165 53.296 33.7801 52.7841 33.5006C52.1336 33.2769 51.1099 33.1088 50.7058 33.458C50.4513 33.7454 50.2603 34.083 50.1449 34.4491C50.0296 34.8152 49.9925 35.2016 50.0362 35.5836C50.0902 36.211 50.7267 36.7736 51.1423 37.3448C54.2007 41.5468 56.4644 46.2681 57.8216 51.2755C51.9813 48.6305 46.9683 45.4471 43.8405 39.9824C39.3604 32.118 39.1577 24.1431 43.2794 16.1133C44.3028 14.1185 45.4022 12.1598 46.545 10.2312C47.453 8.70395 49.0626 8.49824 49.9642 9.92483C53.6866 15.8331 59.0524 20.1982 63.9542 24.9988C71.088 31.9884 72.7187 42.3455 67.6438 50.8915C66.1834 53.3488 66.2701 55.6375 66.5899 58.2526C68.2734 56.6481 69.6834 54.8439 71.5269 53.6329C75.5421 50.9331 78.974 47.9752 81.8513 43.8311C87.4739 35.7265 95.956 34.1325 105.162 36.4594C111.329 38.019 117.385 39.9833 123.827 40.0831C125.407 40.1054 126.292 41.3978 125.623 42.7229C122.577 48.739 119.455 54.7307 113.103 58.0807C105.467 62.0984 97.7722 62.3071 90.0068 58.4022C88.3835 57.5726 86.7317 56.5778 84.5465 55.3647Z" fill="#DBFF47"/>
    <path d="M44.2702 86.8046C38.2519 83.4633 32.2336 80.122 26.2153 76.7807C23.1166 75.0604 22.6847 73.2313 24.5097 69.9549C26.2161 66.8814 28.1837 66.2471 31.1309 67.8834C43.1645 74.5642 55.1981 81.2451 67.2317 87.926C70.1651 89.5546 70.6115 91.4873 68.8544 94.6521C67.0466 97.9083 65.358 98.4943 62.3231 96.8214C56.2854 93.4932 50.2748 90.1383 44.2702 86.8046Z" fill="#12FF99"/>
    <path d="M50.3356 94.5395C56.2943 97.8476 62.2621 101.161 68.2391 104.479C71.4526 106.263 71.9052 108.044 70.0097 111.437C68.2906 114.533 66.3553 115.066 63.1899 113.314C51.3215 106.725 39.4563 100.138 27.5941 93.552C25.9873 92.66 24.2847 91.4757 24.7543 89.6454C25.3376 87.608 26.3958 85.739 27.8428 84.1906C28.9339 83.004 30.6974 83.6246 32.1409 84.432C38.1812 87.8094 44.253 91.1625 50.3356 94.5395Z" fill="#12FF99"/>
    <path d="M43.5493 106.796C49.6242 110.168 55.6961 113.539 61.7649 116.909C64.6157 118.491 65.0612 120.274 63.402 123.284C61.5867 126.554 59.7832 127.25 56.9197 125.69C44.724 118.919 32.5251 112.146 20.3232 105.372C17.7203 103.927 17.2094 102.078 18.5975 99.4371C18.8764 98.9347 19.1578 98.4278 19.4367 97.9254C20.8253 95.6732 22.6175 95.1925 24.9888 96.503C31.1897 99.9158 37.3657 103.363 43.5493 106.796Z" fill="#12FF99"/>
    <path d="M57.9104 78.3537C51.8416 74.9843 45.7712 71.6141 39.6993 68.2431C36.9725 66.7292 36.4888 64.9611 37.9825 62.2056C40.1598 58.1867 41.5539 57.7957 45.6441 60.0665C57.338 66.5588 69.0304 73.0503 80.7212 79.5409C82.3968 80.4711 83.8655 81.5793 83.5758 83.6589C83.262 85.9223 82.3134 88.0961 80.0811 89.0016C79.074 89.3984 77.4949 89.1491 76.484 88.6117C70.2517 85.2771 64.094 81.7867 57.9104 78.3537Z" fill="#12FF99"/>
  </g>
  <defs>
    <clipPath id="clip0_75_709">
      <rect width="85.103" height="107.63" fill="white" transform="translate(52.2433) rotate(29.0385)"/>
    </clipPath>
  </defs>
</svg>