<svg xmlns="http://www.w3.org/2000/svg" width="74" height="74" viewBox="0 0 74 74" fill="none" class="sparkle-icon">
  <style>
    /* Main sparkle animation */
    .sparkle-icon path {
      animation: sparkle 3s ease-in-out infinite;
      transform-origin: center;
    }
    
    /* Different delays for each part */
    .sparkle-icon path:nth-child(1) { animation-delay: 0s; }
    .sparkle-icon path:nth-child(2) { animation-delay: 0.2s; }
    .sparkle-icon path:nth-child(3) { animation-delay: 0.4s; }
    .sparkle-icon path:nth-child(4) { animation-delay: 0.6s; }
    .sparkle-icon path:nth-child(5) { animation-delay: 0.8s; }
    .sparkle-icon path:nth-child(6) { animation-delay: 1s; }
    .sparkle-icon path:nth-child(7) { animation-delay: 1.2s; }
    
    /* Color pulse effect */
    @keyframes sparkle {
      0%, 100% {
        transform: scale(1);
        fill: #DBFF47;
        opacity: 1;
      }
      50% {
        transform: scale(.8);
        fill: #0BDD88;
        opacity: 0.9;
      }
    }
    
    /* Rotate the whole icon */
    .sparkle-icon {
      animation: rotate 15s linear infinite;
    }
    
    @keyframes rotate {
      0% { transform: rotate(0deg); }
      100% { transform: rotate(360deg); }
    }
    
    /* Hover effects */
    .sparkle-icon:hover {
      animation-duration: 7s;
    }
    
    .sparkle-icon:hover path {
      animation-duration: 1.5s;
    }
  </style>
  
  <g clip-path="url(#clip0_143_294)">
    <path d="M66.9193 23.9408C66.5947 22.9416 65.7431 22.2607 64.6971 22.1639L46.5749 20.483L43.1816 12.603C42.9447 12.0532 42.3073 11.7991 42.7572 12.0362C41.2074 12.2729 40.9537 12.9106 41.1904 13.4604L44.8384 21.9313C44.9953 22.2957 45.3389 22.5453 45.7339 22.5819L64.4968 24.3222C64.7361 24.3444 64.8253 24.5122 64.8571 24.6104C64.889 24.7085 64.9155 24.8967 64.7348 25.0552L50.5783 37.4919C50.2801 37.7538 50.149 38.1574 50.2363 38.5446L54.3793 56.9268C54.4321 57.1614 54.3 57.298 54.2166 57.3587C54.133 57.4192 53.9623 57.5028 53.7558 57.3798L37.5531 47.7595C37.2122 47.5572 36.7872 47.5572 36.4463 47.7595L20.2441 57.3801C20.0377 57.5031 19.8668 57.4194 19.7831 57.3588C19.6997 57.2983 19.5676 57.1615 19.6204 56.9273L21.7592 47.4384C21.8908 46.8543 21.524 46.2742 20.9401 46.1425C20.3556 46.011 19.7758 46.3776 19.6442 46.9615L17.5055 56.4506C17.2745 57.4753 17.6591 58.4954 18.5088 59.1129C18.9673 59.446 19.4951 59.6141 20.026 59.614C20.4794 59.614 20.9349 59.4914 21.3509 59.2444L36.9997 49.9523L52.6488 59.2444C53.5522 59.7806 54.641 59.7302 55.4906 59.1129C56.3404 58.4956 56.7249 57.4753 56.4939 56.4505L52.4927 38.696L66.1655 26.6842C66.9551 25.9909 67.2436 24.9396 66.9193 23.9408Z" fill="#DBFF47"/>
    <path d="M41.4007 8.46777L39.3764 3.76718C38.9609 2.80244 38.0502 2.20306 36.9997 2.20306C35.9493 2.20306 35.0387 2.80229 34.6232 3.76718L27.4248 20.4829L9.30275 22.1638C8.25678 22.2608 7.40535 22.9417 7.08073 23.9407C6.75611 24.9397 7.04489 25.9909 7.83388 26.6842L21.5068 38.6959L20.6183 42.6393C20.4866 43.2232 20.8534 43.8035 21.4375 43.935C21.5177 43.9531 21.5977 43.9619 21.6767 43.9619C22.1724 43.9619 22.6196 43.6198 22.7332 43.1158L23.7634 38.5446C23.8507 38.1575 23.7195 37.7537 23.4214 37.492L9.26489 25.0553C9.08437 24.8968 9.11096 24.7086 9.14261 24.6105C9.17455 24.5123 9.26373 24.3445 9.50293 24.3223L28.2657 22.582C28.6607 22.5454 29.0042 22.2958 29.1612 21.9314L36.6145 4.62469C36.7095 4.40399 36.8968 4.37103 36.9999 4.37103C37.1031 4.37103 37.2904 4.40399 37.3853 4.62469L39.4096 9.32528C39.6465 9.87507 40.284 10.129 40.834 9.89213C41.3836 9.65524 41.6374 9.01757 41.4007 8.46777Z" fill="#DBFF47"/>
    <path d="M25.1245 15.9425C24.6134 14.8181 20.0913 4.90121 18.6983 2.96637C18.1631 2.2229 17.3704 1.73236 16.4663 1.58508C15.5613 1.43766 14.6548 1.65142 13.9113 2.18691C12.3767 3.29185 12.0271 5.43901 13.1317 6.97379C14.5249 8.90877 22.4949 16.3433 23.3991 17.1846C23.606 17.3771 23.8713 17.475 24.1378 17.475C24.3588 17.475 24.5806 17.4076 24.7708 17.2706C25.1902 16.9688 25.3383 16.413 25.1245 15.9425ZM14.8915 5.7074C14.4851 5.14286 14.6137 4.353 15.1781 3.94658C15.3952 3.7902 15.6503 3.70854 15.9126 3.70854C15.9809 3.70854 16.0494 3.71403 16.118 3.72516C16.4507 3.77936 16.7421 3.95973 16.9391 4.23318C17.5947 5.14359 19.2596 8.52836 20.7663 11.7082C18.2288 9.27024 15.547 6.6178 14.8915 5.7074Z" fill="#DBFF47"/>
    <path d="M60.0884 2.18732C59.3446 1.65197 58.437 1.43821 57.5334 1.58563C56.6292 1.73291 55.8366 2.22345 55.3014 2.96677C53.9084 4.90161 49.3863 14.8185 48.8752 15.9429C48.6616 16.4132 48.8095 16.9691 49.2289 17.271C49.4189 17.4079 49.6409 17.4754 49.8619 17.4754C50.1286 17.4754 50.3939 17.3774 50.6006 17.185C51.5048 16.3437 59.4747 8.90918 60.8678 6.97434C61.9726 5.43956 61.6232 3.29211 60.0884 2.18732ZM59.1085 5.70738C58.453 6.61778 55.7711 9.27036 53.2337 11.7083C54.7406 8.52863 56.4053 5.14385 57.0609 4.2333C57.2577 3.9597 57.5493 3.77933 57.882 3.72513C57.9506 3.714 58.0191 3.70851 58.0873 3.70851C58.3497 3.70851 58.6048 3.79017 58.8219 3.94641C59.3862 4.35297 59.5149 5.14284 59.1085 5.70738Z" fill="#DBFF47"/>
    <path d="M73.6262 43.2367C73.2113 42.4199 72.5031 41.8136 71.6321 41.5296V41.5295C69.3656 40.7905 58.5434 39.4952 57.317 39.3499C56.8057 39.2897 56.3193 39.5991 56.1591 40.0904C55.9988 40.5815 56.2076 41.1176 56.6578 41.3711C57.7342 41.9768 67.239 47.3113 69.5055 48.0503C69.8556 48.1645 70.2149 48.2211 70.5726 48.2211C71.1052 48.2211 71.634 48.0957 72.1225 47.8474C72.9393 47.4324 73.5456 46.7242 73.8294 45.8534C74.1133 44.9825 74.0412 44.0534 73.6262 43.2367ZM71.7683 45.1812C71.6638 45.5016 71.4409 45.7621 71.1406 45.9147C70.8398 46.0673 70.498 46.0938 70.1779 45.9893C69.1114 45.6415 65.7694 43.8924 62.6757 42.2159C66.1631 42.6854 69.8936 43.2429 70.9601 43.5909C71.2805 43.6954 71.5409 43.9184 71.6936 44.2188C71.8462 44.5191 71.8728 44.8608 71.7683 45.1812Z" fill="#DBFF47"/>
    <path d="M17.841 40.0905C17.6808 39.5994 17.1962 39.2888 16.683 39.3501C15.4565 39.4953 4.63428 40.7906 2.36788 41.5296V41.5298C1.49694 41.8138 0.788735 42.4199 0.373785 43.2368C-0.0411639 44.0534 -0.113285 44.9828 0.170719 45.8534C0.454723 46.7241 1.06089 47.4326 1.87778 47.8475C2.36629 48.0958 2.89513 48.2213 3.42773 48.2213C3.78545 48.2213 4.14475 48.1646 4.49466 48.0506C6.76134 47.3115 16.266 41.9771 17.3425 41.3712C17.7924 41.1177 18.0013 40.5816 17.841 40.0905ZM3.82216 45.9894C3.50173 46.0938 3.15977 46.067 2.85958 45.9147C2.55924 45.7619 2.33638 45.5016 2.23173 45.1811C2.12724 44.8608 2.15383 44.519 2.30646 44.2185C2.45923 43.9181 2.71953 43.6951 3.03995 43.5906C4.10659 43.2428 7.83695 42.6851 11.3243 42.2156C8.23094 43.8926 4.8888 45.6415 3.82216 45.9894Z" fill="#DBFF47"/>
    <path d="M38.1349 54.7455C38.0335 54.2388 37.5885 53.8741 37.0718 53.8741C36.5551 53.8741 36.1102 54.2388 36.0089 54.7455C35.7667 55.9567 33.6423 66.6469 33.6423 69.0308C33.6423 70.9219 35.1809 72.4603 37.0718 72.4603C38.9627 72.4603 40.5012 70.9217 40.5012 69.0308C40.5015 66.6468 38.3772 55.9566 38.1349 54.7455ZM37.0718 70.2923C36.3761 70.2923 35.8102 69.7263 35.8102 69.0307C35.8102 67.9089 36.4368 64.1892 37.0718 60.7284C37.7067 64.1892 38.3334 67.909 38.3334 69.0307C38.3334 69.7263 37.7674 70.2923 37.0718 70.2923Z" fill="#DBFF47"/>
  </g>
  <defs>
    <clipPath id="clip0_143_294">
      <rect width="74" height="74" fill="white"/>
    </clipPath>
  </defs>
</svg>