<svg xmlns="http://www.w3.org/2000/svg" width="98" height="98" viewBox="0 0 98 98" fill="none">
  <style>
    /* Animation definition */
    @keyframes pulseFade {
  0% { opacity: 0.3; transform: scale(0.95); fill: #12FF99; }
  50% { opacity: 1; transform: scale(1); fill: #DBFF47; }
  100% { opacity: 0.3; transform: scale(0.95); fill: #12FF99; }
}
    
    /* Apply to all paths */
    g > path {
      animation: pulseFade 2.5s ease-in-out infinite;
    }
    
    /* Staggered animations for visual interest */
    path:nth-child(1) { animation-delay: 0s; }  /* Main star */
    path:nth-child(2) { animation-delay: 0.2s; } /* Top-left sparkle */
    path:nth-child(3) { animation-delay: 0.4s; } /* Left sparkle */
    path:nth-child(4) { animation-delay: 0.1s; } /* Top-right sparkle */
    path:nth-child(5) { animation-delay: 0.3s; } /* Right sparkle */
    path:nth-child(6) { animation-delay: 0.5s; } /* Bottom sparkle */
  </style>
  <g clip-path="url(#clip0_24_539)">
    <path d="M79.2502 28.6478L63.0708 26.2967L55.8351 11.6358C53.0404 5.97263 44.959 5.97435 42.1653 11.6356L34.9295 26.2965L18.7502 28.6478C12.5002 29.5558 10.0054 37.2417 14.526 41.6486L26.2336 53.0607L23.4698 69.1742C22.4024 75.3989 28.9406 80.1466 34.5291 77.2094L49.0004 69.601L63.4718 77.2094C69.0525 80.1431 75.5984 75.398 74.5311 69.1742L71.7674 53.0605L83.4751 41.6485C87.9965 37.24 85.4975 29.5556 79.2502 28.6478ZM78.9141 36.9703L65.9768 49.5809C65.2069 50.3314 64.8557 51.4127 65.0373 52.4723L68.0914 70.279C68.2447 71.1733 67.3143 71.8485 66.5116 71.4269L50.5201 63.0197C49.5687 62.5196 48.4315 62.5196 47.48 63.0197L31.4886 71.4269C30.6855 71.8489 29.7554 71.1731 29.9088 70.279L32.9628 52.4723C33.1445 51.4127 32.7932 50.3314 32.0234 49.5809L19.0861 36.9703C18.4362 36.3369 18.7917 35.2436 19.6896 35.1129L37.5685 32.5149C38.6323 32.3603 39.5522 31.6923 40.028 30.7282L48.0238 14.527C48.4252 13.7139 49.575 13.7133 49.9765 14.5272L57.9724 30.7282C58.4482 31.6923 59.3681 32.3605 60.4319 32.5149L78.3108 35.1129C79.2085 35.2436 79.5637 36.3371 78.9141 36.9703Z" fill="#12FF99"/>
    <path d="M25.7884 9.02522L21.8816 3.64804C20.8208 2.18876 18.7781 1.8649 17.3188 2.92567C15.8594 3.98607 15.5357 6.02894 16.5963 7.48842L20.5031 12.8654C21.5642 14.3254 23.6069 14.648 25.0658 13.5878C26.5253 12.5276 26.8489 10.4847 25.7884 9.02522Z" fill="#DBFF47"/>
    <path d="M12.8236 57.2127C12.2665 55.4971 10.4236 54.5573 8.70745 55.1155L2.25783 57.2112C0.54206 57.7687 -0.396788 59.6114 0.160587 61.3274C0.71892 63.046 2.56484 63.9816 4.27678 63.4246L10.7264 61.3289C12.4424 60.7713 13.3812 58.9285 12.8236 57.2127Z" fill="#DBFF47"/>
    <path d="M80.6814 2.92581C79.2221 1.86542 77.1792 2.1887 76.1186 3.64817L72.2118 9.02516C71.1513 10.4846 71.4749 12.5277 72.9344 13.5879C74.3944 14.6487 76.4371 14.3244 77.4971 12.8655L81.4039 7.48855C82.4643 6.02908 82.1408 3.98601 80.6814 2.92581Z" fill="#DBFF47"/>
    <path d="M95.742 57.2111L89.2923 55.1154C87.5766 54.5569 85.7337 55.4968 85.1762 57.2126C84.6186 58.9284 85.5574 60.7714 87.2734 61.3288L93.723 63.4245C95.4351 63.9813 97.2809 63.0457 97.8392 61.3273C98.3968 59.6115 97.4577 57.7686 95.742 57.2111Z" fill="#DBFF47"/>
    <path d="M49 82.5353C47.196 82.5353 45.7335 83.9978 45.7335 85.8018V92.4317C45.7335 94.2358 47.196 95.6983 49 95.6983C50.804 95.6983 52.2665 94.2358 52.2665 92.4317V85.8018C52.2667 83.9976 50.8042 82.5353 49 82.5353Z" fill="#DBFF47"/>
  </g>
  <defs>
    <clipPath id="clip0_24_539">
      <rect width="98" height="98" fill="white"/>
    </clipPath>
  </defs>
</svg>