<svg xmlns="http://www.w3.org/2000/svg" width="111" height="19" viewBox="0 0 111 19" fill="none">
    <style>
    /* Rotating border animation */
    @keyframes rotateBorder {
      0% { transform: rotate(0deg); }
      100% { transform: rotate(360deg); }
    }
    
    /* Color fade animation */
    @keyframes colorPulse {
      0%, 100% { 
        fill: #12FF99;
        opacity: 0.7;
      }
      50% { 
        fill: #DBFF47;
        opacity: 1;
      }
    }
    
    /* Apply border rotation */
    .rotating-border {
      position: absolute;
      width: 124px;
      height: 124px;
      border: 2px dashed #DBFF47;
      border-radius: 50%;
      top: -4px;
      left: -4px;
      animation: rotateBorder 8s linear infinite;
      pointer-events: none;
    }
    
    /* Apply color pulse to all paths */
    g > path {
      animation: colorPulse 3s ease-in-out infinite;
    }
    
    /* Staggered animations */
    path:nth-child(1) { animation-delay: 0s; }
    path:nth-child(2) { animation-delay: 0.3s; }
    path:nth-child(3) { animation-delay: 0.6s; }
    path:nth-child(4) { animation-delay: 0.9s; }
  </style>
  
  <!-- Rotating border element -->
  <rect class="rotating-border" x="-2" y="-2" width="124" height="124" rx="62"/>
  
    <path d="M8.54894 2.92705C8.8483 2.00574 10.1517 2.00574 10.4511 2.92705L11.4084 5.87336C11.5422 6.28538 11.9262 6.56434 12.3594 6.56434H15.4574C16.4261 6.56434 16.8289 7.80395 16.0451 8.37336L13.5389 10.1943C13.1884 10.4489 13.0417 10.9003 13.1756 11.3123L14.1329 14.2586C14.4323 15.1799 13.3778 15.946 12.5941 15.3766L10.0878 13.5557C9.7373 13.3011 9.2627 13.3011 8.91221 13.5557L6.40594 15.3766C5.62222 15.946 4.56774 15.1799 4.8671 14.2586L5.82441 11.3123C5.95828 10.9003 5.81162 10.4489 5.46114 10.1943L2.95486 8.37335C2.17115 7.80395 2.57392 6.56434 3.54265 6.56434H6.64057C7.0738 6.56434 7.45776 6.28538 7.59163 5.87336L8.54894 2.92705Z" fill="#FFB017"/>
    <path d="M31.5489 2.92705C31.8483 2.00574 33.1517 2.00574 33.4511 2.92705L34.4084 5.87336C34.5422 6.28538 34.9262 6.56434 35.3594 6.56434H38.4574C39.4261 6.56434 39.8289 7.80395 39.0451 8.37336L36.5389 10.1943C36.1884 10.4489 36.0417 10.9003 36.1756 11.3123L37.1329 14.2586C37.4323 15.1799 36.3778 15.946 35.5941 15.3766L33.0878 13.5557C32.7373 13.3011 32.2627 13.3011 31.9122 13.5557L29.4059 15.3766C28.6222 15.946 27.5677 15.1799 27.8671 14.2586L28.8244 11.3123C28.9583 10.9003 28.8116 10.4489 28.4611 10.1943L25.9549 8.37335C25.1711 7.80395 25.5739 6.56434 26.5426 6.56434H29.6406C30.0738 6.56434 30.4578 6.28538 30.5916 5.87336L31.5489 2.92705Z" fill="#FFB017"/>
    <path d="M54.5489 2.92705C54.8483 2.00574 56.1517 2.00574 56.4511 2.92705L57.4084 5.87336C57.5422 6.28538 57.9262 6.56434 58.3594 6.56434H61.4574C62.4261 6.56434 62.8289 7.80395 62.0451 8.37336L59.5389 10.1943C59.1884 10.4489 59.0417 10.9003 59.1756 11.3123L60.1329 14.2586C60.4323 15.1799 59.3778 15.946 58.5941 15.3766L56.0878 13.5557C55.7373 13.3011 55.2627 13.3011 54.9122 13.5557L52.4059 15.3766C51.6222 15.946 50.5677 15.1799 50.8671 14.2586L51.8244 11.3123C51.9583 10.9003 51.8116 10.4489 51.4611 10.1943L48.9549 8.37335C48.1711 7.80395 48.5739 6.56434 49.5426 6.56434H52.6406C53.0738 6.56434 53.4578 6.28538 53.5916 5.87336L54.5489 2.92705Z" fill="#FFB017"/>
    <path d="M77.5489 2.92705C77.8483 2.00574 79.1517 2.00574 79.4511 2.92705L80.4084 5.87336C80.5422 6.28538 80.9262 6.56434 81.3594 6.56434H84.4574C85.4261 6.56434 85.8289 7.80395 85.0451 8.37336L82.5389 10.1943C82.1884 10.4489 82.0417 10.9003 82.1756 11.3123L83.1329 14.2586C83.4323 15.1799 82.3778 15.946 81.5941 15.3766L79.0878 13.5557C78.7373 13.3011 78.2627 13.3011 77.9122 13.5557L75.4059 15.3766C74.6222 15.946 73.5677 15.1799 73.8671 14.2586L74.8244 11.3123C74.9583 10.9003 74.8116 10.4489 74.4611 10.1943L71.9549 8.37335C71.1711 7.80395 71.5739 6.56434 72.5426 6.56434H75.6406C76.0738 6.56434 76.4578 6.28538 76.5916 5.87336L77.5489 2.92705Z" fill="#FFB017"/>
    <path d="M100.549 2.92705C100.848 2.00574 102.152 2.00574 102.451 2.92705L103.408 5.87336C103.542 6.28538 103.926 6.56434 104.359 6.56434H107.457C108.426 6.56434 108.829 7.80395 108.045 8.37336L105.539 10.1943C105.188 10.4489 105.042 10.9003 105.176 11.3123L106.133 14.2586C106.432 15.1799 105.378 15.946 104.594 15.3766L102.088 13.5557C101.737 13.3011 101.263 13.3011 100.912 13.5557L98.4059 15.3766C97.6222 15.946 96.5677 15.1799 96.8671 14.2586L97.8244 11.3123C97.9583 10.9003 97.8116 10.4489 97.4611 10.1943L94.9549 8.37335C94.1711 7.80395 94.5739 6.56434 95.5426 6.56434H98.6406C99.0738 6.56434 99.4578 6.28538 99.5916 5.87336L100.549 2.92705Z" fill="#FFB017"/>
</svg>