<svg xmlns="http://www.w3.org/2000/svg" width="81" height="78" viewBox="0 0 81 78" fill="none" class="snowflake-icon">
  <style>
    /* Main rotation animation */
    .snowflake-icon {
      animation: rotate 8s linear infinite;
      transform-origin: center;
    }
    
    /* Sparkle animation for all paths */
    .snowflake-icon path {
      animation: sparkle 3s ease-in-out infinite;
    }
    
    /* Different delays for each part */
    .snowflake-icon path:nth-child(1) { animation-delay: 0s; }
    .snowflake-icon path:nth-child(2) { animation-delay: 0.5s; }
    .snowflake-icon path:nth-child(3) { animation-delay: 1s; }
    .snowflake-icon path:nth-child(4) { animation-delay: 1.5s; }
    .snowflake-icon path:nth-child(5) { animation-delay: 2s; }
    
    /* Keyframes */
    @keyframes rotate {
      0% { transform: rotate(0deg) scale(1); }
      100% { transform: rotate(360deg) scale(.7); }
    }
    
    @keyframes sparkle {
      0%, 100% {
        opacity: 1; 
        fill: #12FF99;
      }
      50% {
        opacity: 0.4;
        fill: #daff47;
      }
    }
    
    /* Hover effects */
    .snowflake-icon:hover {
      animation-duration: 4s;
    }
    
    .snowflake-icon:hover path {
      animation-duration: 1.5s;
    }
  </style>
  
  <g clip-path="url(#clip0_132_309)">
    <path d="M80.0293 40.1234L47.6566 45.8916L41.6666 77.0654C41.5625 77.607 41.0721 78 40.5 78C39.9279 78 39.4375 77.607 39.3334 77.0654L33.3434 45.8916L0.970734 40.1234C0.408164 40.0231 0 39.5507 0 39C0 38.4493 0.408164 37.9769 0.970576 37.8766L33.3432 32.1084L39.3333 0.934631C39.4375 0.393051 39.9279 0 40.5 0C41.0721 0 41.5625 0.393051 41.6666 0.934631L47.6566 32.1084L80.0293 37.8766C80.5918 37.9769 81 38.4493 81 39C81 39.5507 80.5918 40.0231 80.0293 40.1234ZM40.5 70.5783L45.3583 45.2944L40.497 40.6158L35.6416 45.2939L40.5 70.5783ZM7.70734 39L33.9635 43.6783L38.8193 39L33.9637 34.3217L7.70734 39ZM40.5 7.42173L35.6417 32.7058L40.5 37.3815L45.3583 32.7058L40.5 7.42173ZM47.036 34.3217L42.1779 38.9973L47.0365 43.6785L73.2928 39L47.036 34.3217Z" fill="#12FF99"/>
    <path d="M65.4729 63.0511C65.0871 63.4225 64.4881 63.4928 64.0206 63.2213L49.7379 54.9164C49.1769 54.5903 48.9968 53.8879 49.3356 53.3477C49.674 52.8077 50.4033 52.6345 50.9643 52.9603L61.1355 58.8745L54.8985 48.9276C54.5597 48.3874 54.7398 47.6851 55.3008 47.359C55.4927 47.2474 55.7042 47.1944 55.913 47.1944C56.3148 47.1944 56.7069 47.3911 56.9296 47.7465L65.6495 61.6528C65.9315 62.1026 65.8586 62.6797 65.4729 63.0511Z" fill="#12FF99"/>
    <path d="M31.6647 24.659C31.3261 25.199 30.5966 25.3722 30.0357 25.0462L19.8645 19.1321L26.1015 29.0791C26.4402 29.6193 26.2601 30.3216 25.6992 30.6478C25.1382 30.9736 24.4089 30.8004 24.0703 30.2603L15.3508 16.3541C15.0687 15.9042 15.1416 15.3272 15.5273 14.9557C15.7561 14.7355 16.06 14.621 16.3668 14.621C16.5773 14.621 16.7895 14.675 16.9796 14.7854L31.2624 23.0903C31.8234 23.4165 32.0034 24.1188 31.6647 24.659Z" fill="#12FF99"/>
    <path d="M65.6494 16.354L57.0251 30.1077C56.6865 30.6479 55.9572 30.8213 55.3962 30.4953C54.8352 30.1691 54.6552 29.4668 54.9939 28.9268L61.1354 19.1321L50.806 25.1383C50.2448 25.4643 49.5157 25.2909 49.1771 24.7509C48.8384 24.2107 49.0184 23.5083 49.5794 23.1822L64.0205 14.7853C64.2107 14.6747 64.4228 14.6209 64.6334 14.6209C64.9402 14.6209 65.2441 14.7352 65.4728 14.9556C65.8585 15.3272 65.9315 15.9043 65.6494 16.354Z" fill="#12FF99"/>
    <path d="M31.4206 54.8244L16.9796 63.2212C16.5125 63.4928 15.9132 63.4224 15.5273 63.051C15.1416 62.6794 15.0687 62.1023 15.3508 61.6526L23.9749 47.8989C24.1977 47.5435 24.5897 47.3468 24.9915 47.3468C25.2003 47.3468 25.4119 47.4 25.6038 47.5113C26.1647 47.8375 26.3448 48.5398 26.0061 49.08L19.8646 58.8745L30.194 52.8683C30.755 52.5423 31.4843 52.7157 31.8229 53.2559C32.1616 53.796 31.9816 54.4983 31.4206 54.8244Z" fill="#12FF99"/>
  </g>
  <defs>
    <clipPath id="clip0_132_309">
      <rect width="81" height="78" fill="white" transform="matrix(1 0 0 -1 0 78)"/>
    </clipPath>
  </defs>
</svg>