<svg xmlns="http://www.w3.org/2000/svg" width="124" height="124" viewBox="0 0 124 124" fill="none">
  <style> 
    @keyframes pulseFade {
        0% { opacity: 0.3; transform: scale(0.95); fill: #12FF99; }
        50% { opacity: 1; transform: scale(1) rotate(-5deg); fill: #DBFF47; }
        100% { opacity: 0.3; transform: scale(0.95); fill: #12FF99; }
    } 

    g > path {
      animation: pulseFade 2.5s ease-in-out infinite;
    }
     
    path:nth-child(1) { animation-delay: 0s; }   
    path:nth-child(2) { animation-delay: 0.2s; }  
    path:nth-child(3) { animation-delay: 0.4s; }  
    path:nth-child(4) { animation-delay: 0.1s; }  
  </style>
  <g clip-path="url(#clip0_149_873)">
    <path d="M93.6359 42.0352C91.3471 43.7592 89.2302 45.7223 87.3443 47.8703C86.9552 48.3113 87.0699 49.0006 87.5831 49.2934C87.959 49.5079 88.4461 49.437 88.7427 49.0982C90.5457 47.0467 92.5682 45.1707 94.7552 43.5226C95.1664 43.2129 95.2484 42.6288 94.9392 42.2193C94.6322 41.8082 94.0461 41.7249 93.6359 42.0352Z" fill="#DBFF47"/>
    <path d="M91.5643 55.2655C91.8012 55.4006 92.0955 55.4304 92.3697 55.3217L101.896 51.5393C102.374 51.35 102.608 50.809 102.418 50.3312C102.229 49.856 101.69 49.6195 101.208 49.8097L91.6818 53.592C90.9507 53.8816 90.8964 54.8843 91.5643 55.2655Z" fill="#DBFF47"/>
    <path d="M106.542 64.3599C106.603 63.848 106.236 63.3832 105.729 63.3237C101.881 62.8586 98.1038 61.8979 94.5023 60.4679C94.0246 60.2777 93.4835 60.5118 93.2943 60.9901C93.0977 61.4845 93.3618 62.0281 93.8164 62.1981C97.5656 63.6872 101.499 64.688 105.505 65.1727C106.016 65.2339 106.479 64.8701 106.542 64.3599Z" fill="#DBFF47"/>
    <path d="M38.0045 59.5323C32.8474 66.1929 27.0615 72.3901 20.7621 77.9726C20.3767 78.3126 20.3239 78.93 20.7272 79.328C20.701 79.324 20.6745 79.3211 20.6483 79.317C21.1213 80.5157 21.7922 81.636 22.6255 82.6189C31.2821 84.0406 40.1417 84.7396 48.9245 84.7992C52.0441 91.349 56.1418 97.9183 61.384 104.776C61.7851 105.305 62.6094 105.254 62.937 104.664C66.8144 97.6987 69.8016 89.6318 72.3216 79.3191C81.2223 77.7957 89.1822 76.391 98.3865 74.8177C99.1619 74.6869 99.4354 73.6966 98.8279 73.1881C91.8528 67.3204 85.2015 61.8873 78.4219 56.1876C79.1473 33.7076 82.977 30.9328 81.4768 29.7857C81.336 29.6738 81.1684 29.6149 80.997 29.6001C81.0303 29.5732 81.0638 29.5473 81.097 29.5204C78.8141 29.3142 76.5083 29.4993 74.2598 29.9448C72.3759 30.3179 63.0787 37.4904 56.5473 42.0803C48.9622 39.6382 41.6177 36.0809 34.6887 31.4608C34.3054 31.2174 33.79 31.2514 33.4633 31.641C33.423 31.6385 33.376 31.6369 33.3427 31.6334C32.3461 32.6464 31.4918 33.7992 30.8125 35.0474C31.7399 43.5541 34.1617 51.888 38.0045 59.5323ZM55.068 43.5612C55.467 43.79 55.896 43.9241 56.3479 43.9744C58.4347 44.6356 58.7704 44.8288 59.2469 44.5458L79.4336 32.4929C77.7364 39.3559 76.837 46.9045 76.5471 56.5819C76.5204 57.4129 76.187 56.6436 96.0917 73.3211C88.0758 74.6971 79.618 76.1833 71.4048 77.5872C71.037 77.6495 70.7434 77.9244 70.6556 78.286C68.2965 88.0918 65.5307 95.8342 61.9946 102.498C56.3486 94.9602 52.1108 87.7725 49.0584 80.5621C48.909 80.2116 48.5642 79.9895 48.1878 79.9941C40.147 80.1063 31.4296 79.4305 23.4229 78.0841C29.9889 72.0986 35.9872 65.4568 41.2711 58.3181C41.7653 57.6494 41.5269 58.4658 35.6456 34.3014C41.8505 38.2203 48.363 41.3191 55.068 43.5612Z" fill="#DBFF47"/>
  </g>
  <defs>
    <clipPath id="clip0_149_873">
      <rect width="90.6178" height="90.6178" fill="white" transform="translate(44.9138) rotate(29.712)"/>
    </clipPath>
  </defs>
</svg>