<svg width="1920" height="333" viewBox="0 0 1920 333" fill="none" xmlns="http://www.w3.org/2000/svg">
  <style>
    /* Wave animation styles */
    g.clip-path_group path {
      animation: wave 3.5s ease-in-out infinite;
      transform-origin: center bottom;
    }
    
    /* Different delays for each row to create wave effect */
    g.clip-path_group path:nth-child(4n+1) { animation-delay: -0.5s; }
    g.clip-path_group path:nth-child(4n+2) { animation-delay: -1s; }
    g.clip-path_group path:nth-child(4n+3) { animation-delay: -1.5s; }
    g.clip-path_group path:nth-child(4n+4) { animation-delay: -2s; }
    
    /* Color pulse effect */
    path[fill="#12FF99"] {
      animation: wave 4.5s ease-in-out infinite, 
                 colorPulseGreen 2s ease-in-out infinite;
    }
    
    path[fill="#DBFF47"] {
      animation: wave 4.5s ease-in-out infinite, 
                 colorPulseYellow 2.5s ease-in-out infinite;
    }
    
    @keyframes wave {
      0%, 100% { transform: translateY(0) scaleY(1); }
      25% { transform: translateY(-15px) scaleY(0.95); }
      50% { transform: translateY(0) scaleY(1); }
      75% { transform: translateY(15px) scaleY(1.05); }
    }
    
    @keyframes colorPulseGreen {
      0%, 100% { fill: #12FF99; opacity: 1; }
      50% { fill: #DBFF47; opacity: 0.9; }
    }
    
    @keyframes colorPulseYellow {
      0%, 100% { fill: #DBFF47; opacity: 1; }
      50% { fill: #0BDD88; opacity: 0.9; }
    }
     
  </style>
  
  <g clip-path="url(#clip0_134_515)" class="clip-path_group">
    <path d="M1940.08 25.3918H1918.52V41.1997H1940.08V25.3918Z" fill="#DBFF47"/>
<path d="M1908.08 36.7502H1886.52V69.4033H1908.08V36.7502Z" fill="#12FF99"/>
<path d="M1898.92 1.17432H1895.7V107.217H1898.92V1.17432Z" fill="#12FF99"/>
<path d="M1874.72 83.6128H1853.16V93.3337H1874.72V83.6128Z" fill="#DBFF47"/>
<path d="M1865.54 74.4203H1862.33V103.798H1865.54V74.4203Z" fill="#DBFF47"/>
<path d="M1842.37 92.4073H1820.81V120.683H1842.37V92.4073Z" fill="#12FF99"/>
<path d="M1833.2 79.8745H1829.98V130.299H1833.2V79.8745Z" fill="#12FF99"/>
<path d="M1810.03 109.996H1788.48V164.903H1810.03V109.996Z" fill="#12FF99"/>
<path d="M1800.86 49.3221H1797.65V225.16H1800.86V49.3221Z" fill="#12FF99"/>
<path d="M1777.35 164.91H1755.8V180.293H1777.35V164.91Z" fill="#DBFF47"/>
<path d="M1768.18 147.706H1764.97V198.665H1768.18V147.706Z" fill="#DBFF47"/>
<path d="M1743.81 184.991H1722.25V208.491H1743.81V184.991Z" fill="#DBFF47"/>
<path d="M1734.64 168.648H1731.42V222.739H1734.64V168.648Z" fill="#DBFF47"/>
<path d="M1711.81 180.287H1690.25V206.781H1711.81V180.287Z" fill="#12FF99"/>
<path d="M1702.64 152.09H1699.43V234.137H1702.64V152.09Z" fill="#12FF99"/>
<path d="M1679.13 196.741H1657.57V220.886H1679.13V196.741Z" fill="#12FF99"/>
<path d="M1669.96 171.747H1666.74V244.249H1669.96V171.747Z" fill="#12FF99"/>
<path d="M1653.15 242.912H1631.59V271.97H1653.15V242.912Z" fill="#DBFF47"/>
<path d="M1643.98 210.826H1640.76V309.249H1643.98V210.826Z" fill="#DBFF47"/>
<path d="M1704.12 309.386H1682.56V332.22H1704.12V309.386Z" fill="#DBFF47"/>
<path d="M1694.95 277.3H1691.74V332.22H1694.95V277.3Z" fill="#DBFF47"/>
<path d="M1739.53 323.51H1717.97V332.22H1739.53V323.51Z" fill="#12FF99"/>
<path d="M1730.35 291.431H1727.15V332.22H1730.35V291.431Z" fill="#12FF99"/>
<path d="M1613.77 251.654H1592.21V274.019H1613.77V251.654Z" fill="#DBFF47"/>
<path d="M1604.6 229.289H1601.38V296.944H1604.6V229.289Z" fill="#DBFF47"/>
<path d="M1581.77 212.124H1560.21V262.83H1581.77V212.124Z" fill="#DBFF47"/>
<path d="M1572.6 154.543H1569.38V281.489H1572.6V154.543Z" fill="#DBFF47"/>
<path d="M1548.39 190.119H1526.84V225.375H1548.39V190.119Z" fill="#12FF99"/>
<path d="M1539.23 147.706H1536.02V266.712H1539.23V147.706Z" fill="#12FF99"/>
<path d="M1516.06 183.281H1494.5V197.276H1516.06V183.281Z" fill="#DBFF47"/>
<path d="M1506.89 167.578H1503.67V212.124H1506.89V167.578Z" fill="#DBFF47"/>
<path d="M1483.03 174.735H1461.47V193.394H1483.03V174.735Z" fill="#DBFF47"/>
<path d="M1473.86 152.09H1470.64V215.758H1473.86V152.09Z" fill="#DBFF47"/>
<path d="M1451.03 173.456H1429.47V201.092H1451.03V173.456Z" fill="#12FF99"/>
<path d="M1441.87 143.967H1438.65V231.136H1441.87V143.967Z" fill="#12FF99"/>
<path d="M1418.35 206.997H1396.79V225.049H1418.35V206.997Z" fill="#12FF99"/>
<path d="M1409.19 187.555H1405.97V244.386H1409.19V187.555Z" fill="#12FF99"/>
<path d="M1385.67 194.607H1364.11V224.448H1385.67V194.607Z" fill="#DBFF47"/>
<path d="M1376.51 161.165H1373.29V258.198H1376.51V161.165Z" fill="#DBFF47"/>
<path d="M1353.56 200.375H1332.01V209.136H1353.56V200.375Z" fill="#12FF99"/>
<path d="M1344.39 189.479H1341.18V220.462H1344.39V189.479Z" fill="#12FF99"/>
<path d="M1320.19 184.991H1298.63V199.52H1320.19V184.991Z" fill="#DBFF47"/>
<path d="M1311.02 170.318H1307.8V210.826H1311.02V170.318Z" fill="#DBFF47"/>
<path d="M1287.27 172.386H1265.72V197.524H1287.27V172.386Z" fill="#DBFF47"/>
<path d="M1278.1 144.541H1274.89V224.52H1278.1V144.541Z" fill="#DBFF47"/>
<path d="M1254.25 158.712H1232.69V182.427H1254.25V158.712Z" fill="#12FF99"/>
<path d="M1245.08 132.537H1241.86V207.636H1245.08V132.537Z" fill="#12FF99"/>
<path d="M1222.94 168.113H1201.38V194.536H1222.94V168.113Z" fill="#12FF99"/>
<path d="M1213.77 138.983H1210.56V224.514H1213.77V138.983Z" fill="#12FF99"/>
<path d="M1189.57 149.526H1168.01V181.755H1189.57V149.526Z" fill="#DBFF47"/>
<path d="M1180.4 111.849H1177.19V218.538H1180.4V111.849Z" fill="#DBFF47"/>
<path d="M1156.43 162.985H1134.88V189.695H1156.43V162.985Z" fill="#12FF99"/>
<path d="M1147.26 132.433H1144.05V220.456H1147.26V132.433Z" fill="#12FF99"/>
<path d="M1124.43 193.753H1102.88V210.95H1124.43V193.753Z" fill="#DBFF47"/>
<path d="M1115.26 177.834H1112.05V228.578H1115.26V177.834Z" fill="#DBFF47"/>
<path d="M1092.43 178.369H1070.88V201.869H1092.43V178.369Z" fill="#DBFF47"/>
<path d="M1083.27 153.936H1080.06V225.01H1083.27V153.936Z" fill="#DBFF47"/>
<path d="M1059.07 186.061H1037.51V223.45H1059.07V186.061Z" fill="#12FF99"/>
<path d="M1049.9 142.206H1046.68V267.781H1049.9V142.206Z" fill="#12FF99"/>
<path d="M1027.42 203.154H1005.86V260.768H1027.42V203.154Z" fill="#DBFF47"/>
<path d="M1018.25 159.782H1015.03V297.16H1018.25V159.782Z" fill="#DBFF47"/>
<path d="M994.736 255.281H973.179V300.65H994.736V255.281Z" fill="#12FF99"/>
<path d="M985.565 212.34H982.351V321.625H985.565V212.34Z" fill="#12FF99"/>
<path d="M962.055 295.026H940.498V325.794H962.055V295.026Z" fill="#DBFF47"/>
<path d="M952.883 281.247H949.669V332.22H952.883V281.247Z" fill="#DBFF47"/>
<path d="M929.709 269.243H908.152V300.011H929.709V269.243Z" fill="#DBFF47"/>
<path d="M920.538 254.218H917.323V332.22H920.538V254.218Z" fill="#DBFF47"/>
<path d="M896.68 244.706H875.124V275.473H896.68V244.706Z" fill="#12FF99"/>
<path d="M887.51 229.792H884.305V332.22H887.51V229.792Z" fill="#12FF99"/>
<path d="M864.692 270.665H843.135V301.433H864.692V270.665Z" fill="#DBFF47"/>
<path d="M855.521 241.078H852.307V332.22H855.521V241.078Z" fill="#DBFF47"/>
<path d="M831.664 249.09H810.107V269.243H831.664V249.09Z" fill="#12FF99"/>
<path d="M822.493 229.785H819.278V315.427H822.493V229.785Z" fill="#12FF99"/>
<path d="M799.318 255.281H777.762V290.962H799.318V255.281Z" fill="#12FF99"/>
<path d="M790.158 215.471H786.943V321.625H790.158V215.471Z" fill="#12FF99"/>
<path d="M765.607 292.032H744.05V322.799H765.607V292.032Z" fill="#DBFF47"/>
<path d="M756.436 275.049H753.221V332.22H756.436V275.049Z" fill="#DBFF47"/>
<path d="M733.272 279.14H711.715V309.908H733.272V279.14Z" fill="#DBFF47"/>
<path d="M724.101 265.433H720.886V332.22H724.101V265.433Z" fill="#DBFF47"/>
<path d="M700.937 304.962H679.37V332.22H700.937V304.962Z" fill="#12FF99"/>
<path d="M691.755 275.049H688.551V332.22H691.755V275.049Z" fill="#12FF99"/>
<path d="M668.245 296.944H646.688V327.712H668.245V296.944Z" fill="#12FF99"/>
<path d="M659.074 288.293H655.859V332.22H659.074V288.293Z" fill="#12FF99"/>
<path d="M1934.74 229.929H1913.19V258.204H1934.74V229.929Z" fill="#12FF99"/>
<path d="M1902.41 247.518H1880.85V302.424H1902.41V247.518Z" fill="#12FF99"/>
<path d="M1893.24 186.844H1890.02V332.22H1893.24V186.844Z" fill="#12FF99"/>
<path d="M1869.73 302.431H1848.17V317.815H1869.73V302.431Z" fill="#DBFF47"/>
<path d="M1860.55 285.233H1857.34V332.22H1860.55V285.233Z" fill="#DBFF47"/>
<path d="M1836.18 322.519H1814.63V332.22H1836.18V322.519Z" fill="#DBFF47"/>
<path d="M1827.01 306.169H1823.8V332.22H1827.01V306.169Z" fill="#DBFF47"/>
<path d="M1804.18 317.815H1782.63V332.22H1804.18V317.815Z" fill="#12FF99"/>
<path d="M1795.01 289.611H1791.8V332.22H1795.01V289.611Z" fill="#12FF99"/>
<path d="M1762.33 309.268H1759.12V332.22H1762.33V309.268Z" fill="#12FF99"/>
<path d="M1664.97 292.071H1661.75V332.22H1664.97V292.071Z" fill="#DBFF47"/>
<path d="M1640.78 327.647H1619.21V332.22H1640.78V327.647Z" fill="#12FF99"/>
<path d="M1631.59 285.233H1628.39V332.22H1631.59V285.233Z" fill="#12FF99"/>
<path d="M1608.43 320.809H1586.87V332.22H1608.43V320.809Z" fill="#DBFF47"/>
<path d="M1599.26 305.106H1596.04V332.22H1599.26V305.106Z" fill="#DBFF47"/>
<path d="M1575.4 312.256H1553.84V330.915H1575.4V312.256Z" fill="#DBFF47"/>
<path d="M1566.23 289.611H1563.02V332.22H1566.23V289.611Z" fill="#DBFF47"/>
<path d="M1543.41 310.978H1521.86V332.22H1543.41V310.978Z" fill="#12FF99"/>
<path d="M1534.23 281.495H1531.03V332.22H1534.23V281.495Z" fill="#12FF99"/>
<path d="M1501.55 325.083H1498.35V332.22H1501.55V325.083Z" fill="#12FF99"/>
<path d="M1478.05 332.129H1456.48V332.22H1478.05V332.129Z" fill="#DBFF47"/>
<path d="M1468.87 298.693H1465.66V332.22H1468.87V298.693Z" fill="#DBFF47"/>
<path d="M1436.76 327.001H1433.55V332.22H1436.76V327.001Z" fill="#12FF99"/>
<path d="M1412.56 322.519H1391V332.22H1412.56V322.519Z" fill="#DBFF47"/>
<path d="M1403.39 307.846H1400.17V332.22H1403.39V307.846Z" fill="#DBFF47"/>
<path d="M1379.65 309.908H1358.09V332.22H1379.65V309.908Z" fill="#DBFF47"/>
<path d="M1370.48 282.063H1367.26V332.22H1370.48V282.063Z" fill="#DBFF47"/>
<path d="M1346.62 296.233H1325.06V319.948H1346.62V296.233Z" fill="#12FF99"/>
<path d="M1337.45 270.065H1334.24V332.22H1337.45V270.065Z" fill="#12FF99"/>
<path d="M1315.31 305.634H1293.76V332.057H1315.31V305.634Z" fill="#12FF99"/>
<path d="M1306.14 276.511H1302.93V332.22H1306.14V276.511Z" fill="#12FF99"/>
<path d="M1281.94 287.047H1260.38V319.276H1281.94V287.047Z" fill="#DBFF47"/>
<path d="M1272.77 249.377H1269.56V332.22H1272.77V249.377Z" fill="#DBFF47"/>
<path d="M1248.8 300.506H1227.25V327.216H1248.8V300.506Z" fill="#12FF99"/>
<path d="M1239.63 269.954H1236.42V332.22H1239.63V269.954Z" fill="#12FF99"/>
<path d="M1216.81 331.274H1195.25V332.22H1216.81V331.274Z" fill="#DBFF47"/>
<path d="M1207.63 315.362H1204.42V332.22H1207.63V315.362Z" fill="#DBFF47"/>
<path d="M1184.82 315.89H1163.25V332.22H1184.82V315.89Z" fill="#DBFF47"/>
<path d="M1175.64 291.464H1172.43V332.22H1175.64V291.464Z" fill="#DBFF47"/>
<path d="M1151.44 323.582H1129.89V332.22H1151.44V323.582Z" fill="#12FF99"/>
<path d="M1142.27 279.734H1139.06V332.22H1142.27V279.734Z" fill="#12FF99"/>
<path d="M1110.62 297.303H1107.4V332.22H1110.62V297.303Z" fill="#DBFF47"/>
<path d="M5.49222 223.15H-1V231.136H5.49222V223.15Z" fill="#12FF99"/>
<path d="M16.26 222.374H35.9048V209.13H16.26L16.26 222.374Z" fill="#DBFF47"/>
<path d="M24.6117 232.675H27.5427L27.5427 195.756H24.6117L24.6117 232.675Z" fill="#DBFF47"/>
<path d="M46.263 220.554H65.9077V197.641H46.263V220.554Z" fill="#DBFF47"/>
<path d="M54.6145 245.156H57.5454L57.5454 172.262H54.6145L54.6145 245.156Z" fill="#DBFF47"/>
<path d="M76.3499 206.794H95.9946V185.18H76.3499V206.794Z" fill="#12FF99"/>
<path d="M84.7016 229.766H87.6326L87.6326 161.315H84.7016L84.7016 229.766Z" fill="#12FF99"/>
<path d="M104.892 217.826H124.537V193.746H104.892V217.826Z" fill="#12FF99"/>
<path d="M113.244 245.156H116.175L116.175 167.2H113.244L113.244 245.156Z" fill="#12FF99"/>
<path d="M135.305 206.174H154.95V176.803H135.305V206.174Z" fill="#DBFF47"/>
<path d="M143.657 239.702H146.588L146.588 142.467H143.657L143.657 239.702Z" fill="#DBFF47"/>
<path d="M165.518 213.41H185.163V189.068H165.518V213.41Z" fill="#12FF99"/>
<path d="M173.87 241.45H176.801L176.801 161.223H173.87L173.87 241.45Z" fill="#12FF99"/>
<path d="M194.68 232.786H214.325V217.109H194.68V232.786Z" fill="#DBFF47"/>
<path d="M203.032 248.855H205.963V202.606H203.032V248.855Z" fill="#DBFF47"/>
<path d="M223.833 224.514H243.477V203.095H223.833V224.514Z" fill="#DBFF47"/>
<path d="M232.184 245.613H235.115V180.835H232.184V245.613Z" fill="#DBFF47"/>
<path d="M254.256 244.177H273.9V210.102H254.256V244.177Z" fill="#12FF99"/>
<path d="M262.607 284.588H265.538V170.135H262.607V284.588Z" fill="#12FF99"/>
<path d="M283.103 278.194H302.748V225.682H283.103V278.194Z" fill="#DBFF47"/>
<path d="M291.455 311.362H294.385V186.152H291.455V311.362Z" fill="#DBFF47"/>
<path d="M312.885 314.546H332.53V273.197H312.885V314.546Z" fill="#12FF99"/>
<path d="M324.168 234.058H321.237V332.22H324.168V234.058Z" fill="#12FF99"/>
<path d="M362.323 309.418H342.667V332.22H362.323V309.418Z" fill="#DBFF47"/>
<path d="M353.961 296.859H351.03V332.22H353.961V296.859Z" fill="#DBFF47"/>
<path d="M372.156 313.959H391.8V285.918H372.156V313.959Z" fill="#DBFF47"/>
<path d="M383.438 272.224H380.507V332.22H383.438V272.224Z" fill="#DBFF47"/>
<path d="M402.242 291.594H421.887V263.554H402.242V291.594Z" fill="#12FF99"/>
<path d="M413.525 249.958H410.604V332.22H413.525V249.958Z" fill="#12FF99"/>
<path d="M431.405 315.257H451.05V287.217H431.405V315.257Z" fill="#DBFF47"/>
<path d="M442.698 260.246H439.767V332.22H442.698V260.246Z" fill="#DBFF47"/>
<path d="M461.513 285.912H481.157V267.54H461.513V285.912Z" fill="#12FF99"/>
<path d="M469.864 328.005H472.795V249.951H469.864V328.005Z" fill="#12FF99"/>
<path d="M490.98 305.719H510.625V273.196H490.98V305.719Z" fill="#12FF99"/>
<path d="M502.273 236.909H499.342V332.22H502.273V236.909Z" fill="#12FF99"/>
<path d="M541.363 306.691H521.708V332.22H541.363V306.691Z" fill="#DBFF47"/>
<path d="M533.001 291.21H530.07V332.22H533.001V291.21Z" fill="#DBFF47"/>
<path d="M551.196 322.982H570.841V294.941H551.196V322.982Z" fill="#DBFF47"/>
<path d="M562.468 282.448H559.547V332.22H562.468V282.448Z" fill="#DBFF47"/>
<path d="M600.308 318.474H580.652V332.22H600.308V318.474Z" fill="#12FF99"/>
<path d="M591.945 291.21H589.025V332.22H591.945V291.21Z" fill="#12FF99"/>
<path d="M630.1 311.167H610.445V332.22H630.1V311.167Z" fill="#12FF99"/>
<path d="M621.738 303.279H618.807V332.22H621.738V303.279Z" fill="#12FF99"/>
<path d="M11.8164 310.521H-1V332.135H11.8164V310.521Z" fill="#12FF99"/>
<path d="M3.44364 286.669H0.523193V332.22H3.44364V286.669Z" fill="#12FF99"/>
<path d="M40.3486 319.087H20.6934V332.22H40.3486V319.087Z" fill="#12FF99"/>
<path d="M31.9864 292.54H29.0554V332.22H31.9864V292.54Z" fill="#12FF99"/>
<path d="M51.1162 331.515H70.761V302.144H51.1162L51.1162 331.515Z" fill="#DBFF47"/>
<path d="M62.399 267.814H59.4785V332.22H62.399V267.814Z" fill="#DBFF47"/>
<path d="M100.964 314.416H81.3188V332.22H100.964V314.416Z" fill="#12FF99"/>
<path d="M92.6014 286.564H89.6704V332.22H92.6014V286.564Z" fill="#12FF99"/>
<path d="M121.774 327.953H118.844V332.22H121.774V327.953Z" fill="#DBFF47"/>
<path d="M159.289 328.43H139.633V332.22H159.289V328.43Z" fill="#DBFF47"/>
<path d="M150.926 306.169H148.006V332.22H150.926V306.169Z" fill="#DBFF47"/>
<path d="M181.339 295.476H178.418V332.22H181.339V295.476Z" fill="#12FF99"/>
<path d="M210.197 311.493H207.266V332.22H210.197V311.493Z" fill="#DBFF47"/>
  </g>
  
  <defs>
    <clipPath id="clip0_134_515">
      <rect width="2017" height="332.22" fill="white" transform="translate(-1)"/>
    </clipPath>
  </defs>
</svg>